solid pared 1
facet normal -8.730860455159902e-17 1.0 -5.690528786534651e-16
  outer loop
    vertex 54.99649122807909 32.0000000000011 5.000000000000983
    vertex 49.996491228074895 32.000000000001094 9.785283694441204e-13
    vertex 49.99649122807493 32.000000000001116 5.000000000001013
  endloop
endfacet
facet normal -8.730860455159902e-17 1.0 -5.690528786534651e-16
  outer loop
    vertex 49.996491228074895 32.000000000001094 9.785283694441204e-13
    vertex 54.99649122807909 32.0000000000011 5.000000000000983
    vertex 54.99649122807909 32.000000000001094 9.489187213773676e-13
  endloop
endfacet
facet normal 5.316669593772633e-16 -1.0 5.690528786534645e-16
  outer loop
    vertex 4.996491228080778 130.00000000000117 5.000000000000839
    vertex 19.496491228078998 130.00000000000117 9.200140649312516e-13
    vertex 19.496491228079066 130.00000000000117 5.000000000000864
  endloop
endfacet
facet normal 5.316669593772633e-16 -1.0 5.690528786534645e-16
  outer loop
    vertex 19.496491228078998 130.00000000000117 9.200140649312516e-13
    vertex 4.996491228080778 130.00000000000117 5.000000000000839
    vertex 4.9964912280806875 130.00000000000117 1.0074330258902364e-12
  endloop
endfacet
facet normal 5.316669593772633e-16 -1.0 5.690528786534645e-16
  outer loop
    vertex 4.996980607074874e-12 125.00000000000288 9.496237129980044e-13
    vertex 4.996491228080778 125.00000000000288 5.000000000000842
    vertex 5.019540338935258e-12 125.00000000000288 5.0000000000008935
  endloop
endfacet
facet normal 5.316669593772633e-16 -1.0 5.690528786534645e-16
  outer loop
    vertex 4.996491228080778 125.00000000000288 5.000000000000842
    vertex 4.996980607074874e-12 125.00000000000288 9.496237129980044e-13
    vertex 4.9964912280806875 125.00000000000284 1.0102529923727842e-12
  endloop
endfacet
facet normal 1.0 -1.8347384805234185e-15 -1.3877787807813268e-15
  outer loop
    vertex 54.99649122807909 32.000000000001094 9.489187213773676e-13
    vertex 54.99649122807906 5.000000000001057 5.000000000000999
    vertex 54.996491228079094 5.000000000001054 9.64428537031381e-13
  endloop
endfacet
facet normal 1.0 -1.8347384805234185e-15 -1.3877787807813268e-15
  outer loop
    vertex 54.99649122807906 5.000000000001057 5.000000000000999
    vertex 54.99649122807909 32.000000000001094 9.489187213773676e-13
    vertex 54.99649122807909 32.0000000000011 5.000000000000983
  endloop
endfacet
facet normal 1.0 5.316669593772622e-16 -1.3877787807813281e-15
  outer loop
    vertex 4.9964912280806875 130.00000000000117 1.0074330258902364e-12
    vertex 4.996491228080778 125.00000000000288 5.000000000000842
    vertex 4.9964912280806875 125.00000000000284 1.0102529923727842e-12
  endloop
endfacet
facet normal 1.0 5.316669593772622e-16 -1.3877787807813281e-15
  outer loop
    vertex 4.996491228080778 125.00000000000288 5.000000000000842
    vertex 4.9964912280806875 130.00000000000117 1.0074330258902364e-12
    vertex 4.996491228080778 130.00000000000117 5.000000000000839
  endloop
endfacet
facet normal 5.316669593772633e-16 -1.0 5.690528786534645e-16
  outer loop
    vertex 5.0984994004465986e-12 76.00000000000108 5.000000000000922
    vertex 4.9964912280807665 76.00000000000105 1.0384526571982632e-12
    vertex 4.996491228080834 76.00000000000108 5.000000000001005
  endloop
endfacet
facet normal 5.316669593772633e-16 -1.0 5.690528786534645e-16
  outer loop
    vertex 4.9964912280807665 76.00000000000105 1.0384526571982632e-12
    vertex 5.0984994004465986e-12 76.00000000000108 5.000000000000922
    vertex 5.087219534516407e-12 76.00000000000108 9.32703914102717e-13
  endloop
endfacet
facet normal 1.0 5.316669593772622e-16 -1.3877787807813281e-15
  outer loop
    vertex 54.99649122807905 125.00000000000115 8.734846179692112e-13
    vertex 54.99649122807911 98.00000000000112 5.000000000000946
    vertex 54.99649122807906 98.00000000000112 8.889944336232247e-13
  endloop
endfacet
facet normal 1.0 5.316669593772622e-16 -1.3877787807813281e-15
  outer loop
    vertex 54.99649122807911 98.00000000000112 5.000000000000946
    vertex 54.99649122807905 125.00000000000115 8.734846179692112e-13
    vertex 54.996491228079094 125.00000000000115 5.000000000000931
  endloop
endfacet
facet normal 1.0 -4.643304785904122e-13 -1.031425559169873e-12
  outer loop
    vertex 4.7488235566106594e-12 32.000000000001016 8.445799615230953e-13
    vertex 3.90283361184629e-12 5.00000000000184 5.000000000000782
    vertex 0.0 5.000000000001838 8.826495090374919e-13
  endloop
endfacet
facet normal 1.0 -4.643304785904122e-13 -1.031425559169873e-12
  outer loop
    vertex 3.90283361184629e-12 5.00000000000184 5.000000000000782
    vertex 4.7488235566106594e-12 32.000000000001016 8.445799615230953e-13
    vertex 4.827782618122e-12 32.00000000000102 5.0000000000007665
  endloop
endfacet
facet normal 5.316669593772633e-16 -1.0 5.690528786534645e-16
  outer loop
    vertex 4.827782618122e-12 32.00000000000102 5.0000000000007665
    vertex 4.996491228080225 32.000000000001066 1.0631273639205573e-12
    vertex 4.996491228080236 32.000000000001094 5.00000000000103
  endloop
endfacet
facet normal 5.316669593772633e-16 -1.0 5.690528786534645e-16
  outer loop
    vertex 4.996491228080225 32.000000000001066 1.0631273639205573e-12
    vertex 4.827782618122e-12 32.00000000000102 5.0000000000007665
    vertex 4.7488235566106594e-12 32.000000000001016 8.445799615230953e-13
  endloop
endfacet
facet normal 1.0 5.31666959377264e-16 1.5990357935653563e-15
  outer loop
    vertex 33.99649122807905 130.0000000000011 8.995693079327793e-13
    vertex 33.99649122807909 125.00000000000234 5.000000000000937
    vertex 33.99649122807905 125.00000000000234 9.023892744153272e-13
  endloop
endfacet
facet normal 1.0 5.31666959377264e-16 1.5990357935653563e-15
  outer loop
    vertex 33.99649122807909 125.00000000000234 5.000000000000937
    vertex 33.99649122807905 130.0000000000011 8.995693079327793e-13
    vertex 33.99649122807909 130.0000000000011 5.000000000000934
  endloop
endfacet
facet normal 1.5567142837093115e-16 -1.0 5.690528786534651e-16
  outer loop
    vertex 33.99649122807909 130.0000000000011 5.000000000000934
    vertex 49.9964912280788 130.00000000000108 1.013072958855332e-12
    vertex 49.99649122807884 130.00000000000108 5.000000000001048
  endloop
endfacet
facet normal 1.5567142837093115e-16 -1.0 5.690528786534651e-16
  outer loop
    vertex 49.9964912280788 130.00000000000108 1.013072958855332e-12
    vertex 33.99649122807909 130.0000000000011 5.000000000000934
    vertex 33.99649122807905 130.0000000000011 8.995693079327793e-13
  endloop
endfacet
facet normal 3.5689705244295853e-16 -1.0 1.4267849050687964e-15
  outer loop
    vertex 19.496491228079133 5.000000000000993 5.000000000000891
    vertex 33.99649122807394 5.000000000000952 9.707734616171136e-13
    vertex 33.99649122807398 5.000000000000956 5.000000000001005
  endloop
endfacet
facet normal 3.5689705244295853e-16 -1.0 1.4267849050687964e-15
  outer loop
    vertex 33.99649122807394 5.000000000000952 9.707734616171136e-13
    vertex 19.496491228079133 5.000000000000993 5.000000000000891
    vertex 19.496491228079037 5.000000000000989 9.91218218615586e-13
  endloop
endfacet
facet normal 1.0 2.1880085554423952e-16 -1.3877787807813277e-15
  outer loop
    vertex 19.496491228079037 5.000000000000989 9.91218218615586e-13
    vertex 19.496491228079172 1.092354248751645e-12 5.0000000000008935
    vertex 19.496491228079076 1.0895089843583776e-12 1.016597916958517e-12
  endloop
endfacet
facet normal 1.0 2.1880085554423952e-16 -1.3877787807813277e-15
  outer loop
    vertex 19.496491228079172 1.092354248751645e-12 5.0000000000008935
    vertex 19.496491228079037 5.000000000000989 9.91218218615586e-13
    vertex 19.496491228079133 5.000000000000993 5.000000000000891
  endloop
endfacet
facet normal 4.729176576575248e-16 -1.0 9.21548688971952e-16
  outer loop
    vertex 4.9964912280592895 2.433768040265412e-14 4.999999999999785
    vertex 19.496491228079076 1.0895089843583776e-12 1.016597916958517e-12
    vertex 19.496491228079172 1.092354248751645e-12 5.0000000000008935
  endloop
endfacet
facet normal 4.729176576575248e-16 -1.0 9.21548688971952e-16
  outer loop
    vertex 19.496491228079076 1.0895089843583776e-12 1.016597916958517e-12
    vertex 4.9964912280592895 2.433768040265412e-14 4.999999999999785
    vertex 4.996491228059222 -1.0673158509963997e-15 -1.4099832412739487e-15
  endloop
endfacet
facet normal 5.316669593772633e-16 -1.0 5.690528786534645e-16
  outer loop
    vertex 49.996491228070084 98.00000000000112 9.411638135503608e-13
    vertex 54.99649122807911 98.00000000000112 5.000000000000946
    vertex 49.99649122807013 98.00000000000112 5.000000000000976
  endloop
endfacet
facet normal 5.316669593772633e-16 -1.0 5.690528786534645e-16
  outer loop
    vertex 54.99649122807911 98.00000000000112 5.000000000000946
    vertex 49.996491228070084 98.00000000000112 9.411638135503608e-13
    vertex 54.99649122807906 98.00000000000112 8.889944336232247e-13
  endloop
endfacet
facet normal 1.0 5.316669593772622e-16 -1.3877787807813281e-15
  outer loop
    vertex 5.087219534516407e-12 76.00000000000108 9.32703914102717e-13
    vertex 5.10977926637679e-12 54.000000000001094 5.000000000000935
    vertex 5.0984994004465986e-12 54.00000000000107 9.453937632741827e-13
  endloop
endfacet
facet normal 1.0 5.316669593772622e-16 -1.3877787807813281e-15
  outer loop
    vertex 5.10977926637679e-12 54.000000000001094 5.000000000000935
    vertex 5.087219534516407e-12 76.00000000000108 9.32703914102717e-13
    vertex 5.0984994004465986e-12 76.00000000000108 5.000000000000922
  endloop
endfacet
facet normal 1.0 1.714869679327603e-15 1.2152672031094239e-15
  outer loop
    vertex 54.99649122807905 76.00000000000111 9.235390230344365e-13
    vertex 54.996491228079094 54.00000000000109 5.000000000000971
    vertex 54.99649122807906 54.000000000001066 9.36228872205902e-13
  endloop
endfacet
facet normal 1.0 1.714869679327603e-15 1.2152672031094239e-15
  outer loop
    vertex 54.996491228079094 54.00000000000109 5.000000000000971
    vertex 54.99649122807905 76.00000000000111 9.235390230344365e-13
    vertex 54.99649122807905 76.0000000000011 5.000000000000958
  endloop
endfacet
facet normal -3.0948778196442737e-16 1.0 1.686920307384854e-15
  outer loop
    vertex 54.99649122807905 76.0000000000011 5.000000000000958
    vertex 49.99649122807011 76.00000000000111 9.305889392408062e-13
    vertex 49.996491228070155 76.00000000000111 5.000000000000988
  endloop
endfacet
facet normal -3.0948778196442737e-16 1.0 1.686920307384854e-15
  outer loop
    vertex 49.99649122807011 76.00000000000111 9.305889392408062e-13
    vertex 54.99649122807905 76.0000000000011 5.000000000000958
    vertex 54.99649122807905 76.00000000000111 9.235390230344365e-13
  endloop
endfacet
facet normal 1.0 5.264477839178625e-15 -1.3877787807813307e-15
  outer loop
    vertex 49.996491228070084 98.00000000000112 9.411638135503608e-13
    vertex 49.996491228070155 76.00000000000111 5.000000000000988
    vertex 49.99649122807011 76.00000000000111 9.305889392408062e-13
  endloop
endfacet
facet normal 1.0 5.264477839178625e-15 -1.3877787807813307e-15
  outer loop
    vertex 49.996491228070155 76.00000000000111 5.000000000000988
    vertex 49.996491228070084 98.00000000000112 9.411638135503608e-13
    vertex 49.99649122807013 98.00000000000112 5.000000000000976
  endloop
endfacet
facet normal 9.760253142029273e-16 -1.0 5.69052878653464e-16
  outer loop
    vertex 49.99649122807488 54.00000000000111 9.65838520272655e-13
    vertex 54.996491228079094 54.00000000000109 5.000000000000971
    vertex 49.99649122807492 54.00000000000111 5.000000000001
  endloop
endfacet
facet normal 9.760253142029273e-16 -1.0 5.69052878653464e-16
  outer loop
    vertex 54.996491228079094 54.00000000000109 5.000000000000971
    vertex 49.99649122807488 54.00000000000111 9.65838520272655e-13
    vertex 54.99649122807906 54.000000000001066 9.36228872205902e-13
  endloop
endfacet
facet normal -1.0 -5.316669593772622e-16 1.3877787807813281e-15
  outer loop
    vertex 49.99649122807884 130.00000000000108 5.000000000001048
    vertex 49.9964912280788 125.00000000000115 1.0158929253378802e-12
    vertex 49.99649122807884 125.00000000000115 5.000000000001051
  endloop
endfacet
facet normal -1.0 -5.316669593772622e-16 1.3877787807813281e-15
  outer loop
    vertex 49.9964912280788 125.00000000000115 1.0158929253378802e-12
    vertex 49.99649122807884 130.00000000000108 5.000000000001048
    vertex 49.9964912280788 130.00000000000108 1.013072958855332e-12
  endloop
endfacet
facet normal -1.0 1.8692959638101593e-17 1.3877787807813277e-15
  outer loop
    vertex 33.99649122807398 5.000000000000956 5.000000000001005
    vertex 33.99649122807394 1.0972181552693453e-12 9.735934280996617e-13
    vertex 33.99649122807398 1.1000634196626127e-12 5.000000000001008
  endloop
endfacet
facet normal -1.0 1.8692959638101593e-17 1.3877787807813277e-15
  outer loop
    vertex 33.99649122807394 1.0972181552693453e-12 9.735934280996617e-13
    vertex 33.99649122807398 5.000000000000956 5.000000000001005
    vertex 33.99649122807394 5.000000000000952 9.707734616171136e-13
  endloop
endfacet
facet normal 1.0 -1.8692959638101593e-17 -1.3877787807813277e-15
  outer loop
    vertex 49.99649122807889 5.000000000001051 1.0391576488189002e-12
    vertex 49.99649122807888 1.1085700910126514e-12 5.000000000001031
    vertex 49.99649122807889 1.1057248266193842e-12 1.041977615301448e-12
  endloop
endfacet
facet normal 1.0 -1.8692959638101593e-17 -1.3877787807813277e-15
  outer loop
    vertex 49.99649122807888 1.1085700910126514e-12 5.000000000001031
    vertex 49.99649122807889 5.000000000001051 1.0391576488189002e-12
    vertex 49.996491228078874 5.000000000001054 5.0000000000010285
  endloop
endfacet
facet normal 1.0 5.316669593772622e-16 -1.3877787807813281e-15
  outer loop
    vertex 49.99649122807488 54.00000000000111 9.65838520272655e-13
    vertex 49.99649122807493 32.000000000001116 5.000000000001013
    vertex 49.996491228074895 32.000000000001094 9.785283694441204e-13
  endloop
endfacet
facet normal 1.0 5.316669593772622e-16 -1.3877787807813281e-15
  outer loop
    vertex 49.99649122807493 32.000000000001116 5.000000000001013
    vertex 49.99649122807488 54.00000000000111 9.65838520272655e-13
    vertex 49.99649122807492 54.00000000000111 5.000000000001
  endloop
endfacet
facet normal 4.1710582102377116e-16 -1.0 5.503599190153626e-16
  outer loop
    vertex 49.99649122807889 5.000000000001051 1.0391576488189002e-12
    vertex 54.99649122807906 5.000000000001057 5.000000000000999
    vertex 49.996491228078874 5.000000000001054 5.0000000000010285
  endloop
endfacet
facet normal 4.1710582102377116e-16 -1.0 5.503599190153626e-16
  outer loop
    vertex 54.99649122807906 5.000000000001057 5.000000000000999
    vertex 49.99649122807889 5.000000000001051 1.0391576488189002e-12
    vertex 54.996491228079094 5.000000000001054 9.64428537031381e-13
  endloop
endfacet
facet normal 5.316669593772633e-16 -1.0 5.690528786534645e-16
  outer loop
    vertex 49.9964912280788 125.00000000000115 1.0158929253378802e-12
    vertex 54.996491228079094 125.00000000000115 5.000000000000931
    vertex 49.99649122807884 125.00000000000115 5.000000000001051
  endloop
endfacet
facet normal 5.316669593772633e-16 -1.0 5.690528786534645e-16
  outer loop
    vertex 54.996491228079094 125.00000000000115 5.000000000000931
    vertex 49.9964912280788 125.00000000000115 1.0158929253378802e-12
    vertex 54.99649122807905 125.00000000000115 8.734846179692112e-13
  endloop
endfacet
facet normal 1.0 -8.933954800225463e-15 -1.387778780781329e-15
  outer loop
    vertex 4.996491228080214 54.00000000000107 1.0511425063697289e-12
    vertex 4.996491228080236 32.000000000001094 5.00000000000103
    vertex 4.996491228080225 32.000000000001066 1.0631273639205573e-12
  endloop
endfacet
facet normal 1.0 -8.933954800225463e-15 -1.387778780781329e-15
  outer loop
    vertex 4.996491228080236 32.000000000001094 5.00000000000103
    vertex 4.996491228080214 54.00000000000107 1.0511425063697289e-12
    vertex 4.996491228080293 54.000000000001094 5.000000000001018
  endloop
endfacet
facet normal 1.0 -4.201143920424112e-15 9.024405154781667e-15
  outer loop
    vertex 4.996491228080778 98.00000000000108 1.070882271747564e-12
    vertex 4.996491228080834 76.00000000000108 5.000000000001005
    vertex 4.9964912280807665 76.00000000000105 1.0384526571982632e-12
  endloop
endfacet
facet normal 1.0 -4.201143920424112e-15 9.024405154781667e-15
  outer loop
    vertex 4.996491228080834 76.00000000000108 5.000000000001005
    vertex 4.996491228080778 98.00000000000108 1.070882271747564e-12
    vertex 4.996491228080823 98.00000000000108 5.000000000001037
  endloop
endfacet
facet normal -5.3166695937726085e-16 1.0 5.589337143656943e-16
  outer loop
    vertex 4.996491228080214 54.00000000000107 1.0511425063697289e-12
    vertex 5.10977926637679e-12 54.000000000001094 5.000000000000935
    vertex 4.996491228080293 54.000000000001094 5.000000000001018
  endloop
endfacet
facet normal -5.3166695937726085e-16 1.0 5.589337143656943e-16
  outer loop
    vertex 5.10977926637679e-12 54.000000000001094 5.000000000000935
    vertex 4.996491228080214 54.00000000000107 1.0511425063697289e-12
    vertex 5.0984994004465986e-12 54.00000000000107 9.453937632741827e-13
  endloop
endfacet
facet normal 4.2832159680663084e-16 -1.0 5.503599190153625e-16
  outer loop
    vertex 33.99649122807398 1.1000634196626127e-12 5.000000000001008
    vertex 49.99649122807889 1.1057248266193842e-12 1.041977615301448e-12
    vertex 49.99649122807888 1.1085700910126514e-12 5.000000000001031
  endloop
endfacet
facet normal 4.2832159680663084e-16 -1.0 5.503599190153625e-16
  outer loop
    vertex 49.99649122807889 1.1057248266193842e-12 1.041977615301448e-12
    vertex 33.99649122807398 1.1000634196626127e-12 5.000000000001008
    vertex 33.99649122807394 1.0972181552693453e-12 9.735934280996617e-13
  endloop
endfacet
facet normal -1.4203836690285919e-15 1.0 -5.690528786534818e-16
  outer loop
    vertex 4.996491228080778 98.00000000000108 1.070882271747564e-12
    vertex 5.030820204865449e-12 98.00000000000108 5.0000000000009095
    vertex 4.996491228080823 98.00000000000108 5.000000000001037
  endloop
endfacet
facet normal -1.4203836690285919e-15 1.0 -5.690528786534818e-16
  outer loop
    vertex 5.030820204865449e-12 98.00000000000108 5.0000000000009095
    vertex 4.996491228080778 98.00000000000108 1.070882271747564e-12
    vertex 5.087219534516407e-12 98.00000000000108 9.65133528652018e-13
  endloop
endfacet
facet normal 1.0 5.5904555116543555e-15 9.024405154781672e-15
  outer loop
    vertex 4.996980607074874e-12 125.00000000000288 9.496237129980044e-13
    vertex 5.030820204865449e-12 98.00000000000108 5.0000000000009095
    vertex 5.087219534516407e-12 98.00000000000108 9.65133528652018e-13
  endloop
endfacet
facet normal 1.0 5.5904555116543555e-15 9.024405154781672e-15
  outer loop
    vertex 5.030820204865449e-12 98.00000000000108 5.0000000000009095
    vertex 4.996980607074874e-12 125.00000000000288 9.496237129980044e-13
    vertex 5.019540338935258e-12 125.00000000000288 5.0000000000008935
  endloop
endfacet
facet normal 1.7352911268077486e-15 -9.119937621727548e-16 1.0
  outer loop
    vertex 49.99649122807011 76.00000000000111 9.305889392408062e-13
    vertex 54.99649122807906 54.000000000001066 9.36228872205902e-13
    vertex 54.99649122807905 76.00000000000111 9.235390230344365e-13
  endloop
endfacet
facet normal 1.7352911268077486e-15 -9.119937621727548e-16 1.0
  outer loop
    vertex 54.99649122807906 54.000000000001066 9.36228872205902e-13
    vertex 49.99649122807011 76.00000000000111 9.305889392408062e-13
    vertex 49.99649122807488 54.00000000000111 9.65838520272655e-13
  endloop
endfacet
facet normal 1.7352911268077486e-15 -9.119937621727548e-16 1.0
  outer loop
    vertex 49.99649122807488 54.00000000000111 9.65838520272655e-13
    vertex 49.99649122807011 76.00000000000111 9.305889392408062e-13
    vertex 49.996491228074895 32.000000000001094 9.785283694441204e-13
  endloop
endfacet
facet normal 1.7352911268077486e-15 -9.119937621727548e-16 1.0
  outer loop
    vertex 33.99649122807905 130.0000000000011 8.995693079327793e-13
    vertex 49.9964912280788 125.00000000000115 1.0158929253378802e-12
    vertex 49.9964912280788 130.00000000000108 1.013072958855332e-12
  endloop
endfacet
facet normal 1.7352911268077486e-15 -9.119937621727548e-16 1.0
  outer loop
    vertex 49.9964912280788 125.00000000000115 1.0158929253378802e-12
    vertex 33.99649122807905 130.0000000000011 8.995693079327793e-13
    vertex 49.996491228070084 98.00000000000112 9.411638135503608e-13
  endloop
endfacet
facet normal 1.7352911268077486e-15 -9.119937621727548e-16 1.0
  outer loop
    vertex 49.996491228074895 32.000000000001094 9.785283694441204e-13
    vertex 54.996491228079094 5.000000000001054 9.64428537031381e-13
    vertex 54.99649122807909 32.000000000001094 9.489187213773676e-13
  endloop
endfacet
facet normal 1.7352911268077486e-15 -9.119937621727548e-16 1.0
  outer loop
    vertex 54.996491228079094 5.000000000001054 9.64428537031381e-13
    vertex 49.996491228074895 32.000000000001094 9.785283694441204e-13
    vertex 49.99649122807889 5.000000000001051 1.0391576488189002e-12
  endloop
endfacet
facet normal 1.7352911268077486e-15 -9.119937621727548e-16 1.0
  outer loop
    vertex 49.99649122807889 5.000000000001051 1.0391576488189002e-12
    vertex 49.996491228074895 32.000000000001094 9.785283694441204e-13
    vertex 49.99649122807889 1.1057248266193842e-12 1.041977615301448e-12
  endloop
endfacet
facet normal 1.7352911268077486e-15 -9.119937621727548e-16 1.0
  outer loop
    vertex 49.99649122807889 1.1057248266193842e-12 1.041977615301448e-12
    vertex 49.996491228074895 32.000000000001094 9.785283694441204e-13
    vertex 33.99649122807394 1.0972181552693453e-12 9.735934280996617e-13
  endloop
endfacet
facet normal 1.7352911268077486e-15 -9.119937621727548e-16 1.0
  outer loop
    vertex 33.99649122807394 1.0972181552693453e-12 9.735934280996617e-13
    vertex 49.996491228074895 32.000000000001094 9.785283694441204e-13
    vertex 49.99649122807011 76.00000000000111 9.305889392408062e-13
  endloop
endfacet
facet normal 1.7352911268077486e-15 -9.119937621727548e-16 1.0
  outer loop
    vertex 33.99649122807394 1.0972181552693453e-12 9.735934280996617e-13
    vertex 49.99649122807011 76.00000000000111 9.305889392408062e-13
    vertex 49.996491228070084 98.00000000000112 9.411638135503608e-13
  endloop
endfacet
facet normal 1.7352911268077486e-15 -9.119937621727548e-16 1.0
  outer loop
    vertex 33.99649122807394 1.0972181552693453e-12 9.735934280996617e-13
    vertex 49.996491228070084 98.00000000000112 9.411638135503608e-13
    vertex 33.99649122807905 125.00000000000234 9.023892744153272e-13
  endloop
endfacet
facet normal 1.7352911268077486e-15 -9.119937621727548e-16 1.0
  outer loop
    vertex 33.99649122807905 125.00000000000234 9.023892744153272e-13
    vertex 49.996491228070084 98.00000000000112 9.411638135503608e-13
    vertex 33.99649122807905 130.0000000000011 8.995693079327793e-13
  endloop
endfacet
facet normal 1.7352911268077486e-15 -9.119937621727548e-16 1.0
  outer loop
    vertex 33.99649122807394 1.0972181552693453e-12 9.735934280996617e-13
    vertex 33.99649122807905 125.00000000000234 9.023892744153272e-13
    vertex 33.99649122807394 5.000000000000952 9.707734616171136e-13
  endloop
endfacet
facet normal 1.7352911268077486e-15 -9.119937621727548e-16 1.0
  outer loop
    vertex 49.9964912280788 125.00000000000115 1.0158929253378802e-12
    vertex 54.99649122807906 98.00000000000112 8.889944336232247e-13
    vertex 54.99649122807905 125.00000000000115 8.734846179692112e-13
  endloop
endfacet
facet normal 1.7352911268077486e-15 -9.119937621727548e-16 1.0
  outer loop
    vertex 54.99649122807906 98.00000000000112 8.889944336232247e-13
    vertex 49.9964912280788 125.00000000000115 1.0158929253378802e-12
    vertex 49.996491228070084 98.00000000000112 9.411638135503608e-13
  endloop
endfacet
facet normal 1.7352911268077486e-15 -9.119937621727548e-16 1.0
  outer loop
    vertex 4.9964912280806875 130.00000000000117 1.0074330258902364e-12
    vertex 19.496491228078998 125.00000000000234 9.228340314137995e-13
    vertex 19.496491228078998 130.00000000000117 9.200140649312516e-13
  endloop
endfacet
facet normal 1.7352911268077486e-15 -9.119937621727548e-16 1.0
  outer loop
    vertex 19.496491228078998 125.00000000000234 9.228340314137995e-13
    vertex 4.9964912280806875 130.00000000000117 1.0074330258902364e-12
    vertex 19.496491228079037 5.000000000000989 9.91218218615586e-13
  endloop
endfacet
facet normal 1.7352911268077486e-15 -9.119937621727548e-16 1.0
  outer loop
    vertex 19.496491228079037 5.000000000000989 9.91218218615586e-13
    vertex 4.9964912280806875 130.00000000000117 1.0074330258902364e-12
    vertex 4.996491228080778 98.00000000000108 1.070882271747564e-12
  endloop
endfacet
facet normal 1.7352911268077486e-15 -9.119937621727548e-16 1.0
  outer loop
    vertex 4.996491228080778 98.00000000000108 1.070882271747564e-12
    vertex 4.9964912280806875 130.00000000000117 1.0074330258902364e-12
    vertex 4.9964912280806875 125.00000000000284 1.0102529923727842e-12
  endloop
endfacet
facet normal 1.7352911268077486e-15 -9.119937621727548e-16 1.0
  outer loop
    vertex 4.996491228080778 98.00000000000108 1.070882271747564e-12
    vertex 4.9964912280806875 125.00000000000284 1.0102529923727842e-12
    vertex 5.087219534516407e-12 98.00000000000108 9.65133528652018e-13
  endloop
endfacet
facet normal 1.7352911268077486e-15 -9.119937621727548e-16 1.0
  outer loop
    vertex 5.087219534516407e-12 98.00000000000108 9.65133528652018e-13
    vertex 4.9964912280806875 125.00000000000284 1.0102529923727842e-12
    vertex 4.996980607074874e-12 125.00000000000288 9.496237129980044e-13
  endloop
endfacet
facet normal 1.7352911268077486e-15 -9.119937621727548e-16 1.0
  outer loop
    vertex 5.087219534516407e-12 76.00000000000108 9.32703914102717e-13
    vertex 4.996491228080214 54.00000000000107 1.0511425063697289e-12
    vertex 4.9964912280807665 76.00000000000105 1.0384526571982632e-12
  endloop
endfacet
facet normal 1.7352911268077486e-15 -9.119937621727548e-16 1.0
  outer loop
    vertex 4.996491228080214 54.00000000000107 1.0511425063697289e-12
    vertex 5.087219534516407e-12 76.00000000000108 9.32703914102717e-13
    vertex 5.0984994004465986e-12 54.00000000000107 9.453937632741827e-13
  endloop
endfacet
facet normal 1.7352911268077486e-15 -9.119937621727548e-16 1.0
  outer loop
    vertex 19.496491228079037 5.000000000000989 9.91218218615586e-13
    vertex 4.996491228059222 -1.0673158509963997e-15 -1.4099832412739487e-15
    vertex 19.496491228079076 1.0895089843583776e-12 1.016597916958517e-12
  endloop
endfacet
facet normal 1.7352911268077486e-15 -9.119937621727548e-16 1.0
  outer loop
    vertex 4.996491228059222 -1.0673158509963997e-15 -1.4099832412739487e-15
    vertex 19.496491228079037 5.000000000000989 9.91218218615586e-13
    vertex 4.996491228080225 32.000000000001066 1.0631273639205573e-12
  endloop
endfacet
facet normal 1.7352911268077486e-15 -9.119937621727548e-16 1.0
  outer loop
    vertex 4.996491228080225 32.000000000001066 1.0631273639205573e-12
    vertex 19.496491228079037 5.000000000000989 9.91218218615586e-13
    vertex 4.9964912280807665 76.00000000000105 1.0384526571982632e-12
  endloop
endfacet
facet normal 1.7352911268077486e-15 -9.119937621727548e-16 1.0
  outer loop
    vertex 4.9964912280807665 76.00000000000105 1.0384526571982632e-12
    vertex 19.496491228079037 5.000000000000989 9.91218218615586e-13
    vertex 4.996491228080778 98.00000000000108 1.070882271747564e-12
  endloop
endfacet
facet normal 1.7352911268077486e-15 -9.119937621727548e-16 1.0
  outer loop
    vertex 4.996491228080225 32.000000000001066 1.0631273639205573e-12
    vertex 4.9964912280807665 76.00000000000105 1.0384526571982632e-12
    vertex 4.996491228080214 54.00000000000107 1.0511425063697289e-12
  endloop
endfacet
facet normal 1.7352911268077486e-15 -9.119937621727548e-16 1.0
  outer loop
    vertex 4.996491228059222 -1.0673158509963997e-15 -1.4099832412739487e-15
    vertex 4.996491228080225 32.000000000001066 1.0631273639205573e-12
    vertex 4.996491228058264 5.000000000000825 -4.229949723821846e-15
  endloop
endfacet
facet normal 1.7352911268077486e-15 -9.119937621727548e-16 1.0
  outer loop
    vertex 4.996491228058264 5.000000000000825 -4.229949723821846e-15
    vertex 4.996491228080225 32.000000000001066 1.0631273639205573e-12
    vertex 4.7488235566106594e-12 32.000000000001016 8.445799615230953e-13
  endloop
endfacet
facet normal 1.7352911268077486e-15 -9.119937621727548e-16 1.0
  outer loop
    vertex 4.996491228058264 5.000000000000825 -4.229949723821846e-15
    vertex 4.7488235566106594e-12 32.000000000001016 8.445799615230953e-13
    vertex 0.0 5.000000000001838 8.826495090374919e-13
  endloop
endfacet
facet normal 1.7352911268077486e-15 -9.119937621727548e-16 1.0
  outer loop
    vertex 19.496491228078998 125.00000000000234 9.228340314137995e-13
    vertex 33.99649122807394 5.000000000000952 9.707734616171136e-13
    vertex 33.99649122807905 125.00000000000234 9.023892744153272e-13
  endloop
endfacet
facet normal 1.7352911268077486e-15 -9.119937621727548e-16 1.0
  outer loop
    vertex 33.99649122807394 5.000000000000952 9.707734616171136e-13
    vertex 19.496491228078998 125.00000000000234 9.228340314137995e-13
    vertex 19.496491228079037 5.000000000000989 9.91218218615586e-13
  endloop
endfacet
facet normal -1.0 -5.316669593772598e-16 5.7253243635374185e-15
  outer loop
    vertex 19.496491228079066 130.00000000000117 5.000000000000864
    vertex 19.496491228078998 125.00000000000234 9.228340314137995e-13
    vertex 19.496491228079066 125.00000000000234 5.000000000000867
  endloop
endfacet
facet normal -1.0 -5.316669593772598e-16 5.7253243635374185e-15
  outer loop
    vertex 19.496491228078998 125.00000000000234 9.228340314137995e-13
    vertex 19.496491228079066 130.00000000000117 5.000000000000864
    vertex 19.496491228078998 130.00000000000117 9.200140649312516e-13
  endloop
endfacet
facet normal 5.316669593772633e-16 -1.0 5.690528786534645e-16
  outer loop
    vertex 19.496491228079066 125.00000000000234 5.000000000000867
    vertex 33.99649122807905 125.00000000000234 9.023892744153272e-13
    vertex 33.99649122807909 125.00000000000234 5.000000000000937
  endloop
endfacet
facet normal 5.316669593772633e-16 -1.0 5.690528786534645e-16
  outer loop
    vertex 33.99649122807905 125.00000000000234 9.023892744153272e-13
    vertex 19.496491228079066 125.00000000000234 5.000000000000867
    vertex 19.496491228078998 125.00000000000234 9.228340314137995e-13
  endloop
endfacet
facet normal -1.0 9.981369364757697e-13 1.0314255591698858e-12
  outer loop
    vertex 4.9964912280592895 2.433768040265412e-14 4.999999999999785
    vertex 4.996491228058264 5.000000000000825 -4.229949723821846e-15
    vertex 4.996491228059222 -1.0673158509963997e-15 -1.4099832412739487e-15
  endloop
endfacet
facet normal -1.0 9.981369364757697e-13 1.0314255591698858e-12
  outer loop
    vertex 4.996491228058264 5.000000000000825 -4.229949723821846e-15
    vertex 4.9964912280592895 2.433768040265412e-14 4.999999999999785
    vertex 4.9964912280621325 5.000000000000828 4.999999999999917
  endloop
endfacet
facet normal -3.4681881167406065e-14 -1.0 5.690528787257976e-16
  outer loop
    vertex 0.0 5.000000000001838 8.826495090374919e-13
    vertex 4.9964912280621325 5.000000000000828 4.999999999999917
    vertex 3.90283361184629e-12 5.00000000000184 5.000000000000782
  endloop
endfacet
facet normal -3.4681881167406065e-14 -1.0 5.690528787257976e-16
  outer loop
    vertex 4.9964912280621325 5.000000000000828 4.999999999999917
    vertex 0.0 5.000000000001838 8.826495090374919e-13
    vertex 4.996491228058264 5.000000000000825 -4.229949723821846e-15
  endloop
endfacet
facet normal 1.5633966054884746e-15 -1.173712458438687e-15 1.0
  outer loop
    vertex 54.99649122807905 76.0000000000011 5.000000000000958
    vertex 49.99649122807492 54.00000000000111 5.000000000001
    vertex 54.996491228079094 54.00000000000109 5.000000000000971
  endloop
endfacet
facet normal 1.5633966054884746e-15 -1.173712458438687e-15 1.0
  outer loop
    vertex 49.99649122807492 54.00000000000111 5.000000000001
    vertex 54.99649122807905 76.0000000000011 5.000000000000958
    vertex 49.996491228070155 76.00000000000111 5.000000000000988
  endloop
endfacet
facet normal 1.5633966054884746e-15 -1.173712458438687e-15 1.0
  outer loop
    vertex 49.99649122807492 54.00000000000111 5.000000000001
    vertex 49.996491228070155 76.00000000000111 5.000000000000988
    vertex 49.99649122807493 32.000000000001116 5.000000000001013
  endloop
endfacet
facet normal 1.5633966054884746e-15 -1.173712458438687e-15 1.0
  outer loop
    vertex 33.99649122807909 130.0000000000011 5.000000000000934
    vertex 49.99649122807884 125.00000000000115 5.000000000001051
    vertex 49.99649122807884 130.00000000000108 5.000000000001048
  endloop
endfacet
facet normal 1.5633966054884746e-15 -1.173712458438687e-15 1.0
  outer loop
    vertex 49.99649122807884 125.00000000000115 5.000000000001051
    vertex 33.99649122807909 130.0000000000011 5.000000000000934
    vertex 49.99649122807013 98.00000000000112 5.000000000000976
  endloop
endfacet
facet normal 1.5633966054884746e-15 -1.173712458438687e-15 1.0
  outer loop
    vertex 4.996491228080778 130.00000000000117 5.000000000000839
    vertex 19.496491228079066 125.00000000000234 5.000000000000867
    vertex 19.496491228079066 130.00000000000117 5.000000000000864
  endloop
endfacet
facet normal 1.5633966054884746e-15 -1.173712458438687e-15 1.0
  outer loop
    vertex 19.496491228079066 125.00000000000234 5.000000000000867
    vertex 4.996491228080778 130.00000000000117 5.000000000000839
    vertex 19.496491228079133 5.000000000000993 5.000000000000891
  endloop
endfacet
facet normal 1.5633966054884746e-15 -1.173712458438687e-15 1.0
  outer loop
    vertex 19.496491228079133 5.000000000000993 5.000000000000891
    vertex 4.996491228080778 130.00000000000117 5.000000000000839
    vertex 4.996491228080823 98.00000000000108 5.000000000001037
  endloop
endfacet
facet normal 1.5633966054884746e-15 -1.173712458438687e-15 1.0
  outer loop
    vertex 4.996491228080823 98.00000000000108 5.000000000001037
    vertex 4.996491228080778 130.00000000000117 5.000000000000839
    vertex 4.996491228080778 125.00000000000288 5.000000000000842
  endloop
endfacet
facet normal 1.5633966054884746e-15 -1.173712458438687e-15 1.0
  outer loop
    vertex 4.996491228080823 98.00000000000108 5.000000000001037
    vertex 4.996491228080778 125.00000000000288 5.000000000000842
    vertex 5.030820204865449e-12 98.00000000000108 5.0000000000009095
  endloop
endfacet
facet normal 1.5633966054884746e-15 -1.173712458438687e-15 1.0
  outer loop
    vertex 5.030820204865449e-12 98.00000000000108 5.0000000000009095
    vertex 4.996491228080778 125.00000000000288 5.000000000000842
    vertex 5.019540338935258e-12 125.00000000000288 5.0000000000008935
  endloop
endfacet
facet normal 1.5633966054884746e-15 -1.173712458438687e-15 1.0
  outer loop
    vertex 5.0984994004465986e-12 76.00000000000108 5.000000000000922
    vertex 4.996491228080293 54.000000000001094 5.000000000001018
    vertex 4.996491228080834 76.00000000000108 5.000000000001005
  endloop
endfacet
facet normal 1.5633966054884746e-15 -1.173712458438687e-15 1.0
  outer loop
    vertex 4.996491228080293 54.000000000001094 5.000000000001018
    vertex 5.0984994004465986e-12 76.00000000000108 5.000000000000922
    vertex 5.10977926637679e-12 54.000000000001094 5.000000000000935
  endloop
endfacet
facet normal 1.5633966054884746e-15 -1.173712458438687e-15 1.0
  outer loop
    vertex 4.827782618122e-12 32.00000000000102 5.0000000000007665
    vertex 4.9964912280621325 5.000000000000828 4.999999999999917
    vertex 4.996491228080236 32.000000000001094 5.00000000000103
  endloop
endfacet
facet normal 1.5633966054884746e-15 -1.173712458438687e-15 1.0
  outer loop
    vertex 4.9964912280621325 5.000000000000828 4.999999999999917
    vertex 4.827782618122e-12 32.00000000000102 5.0000000000007665
    vertex 3.90283361184629e-12 5.00000000000184 5.000000000000782
  endloop
endfacet
facet normal 1.5633966054884746e-15 -1.173712458438687e-15 1.0
  outer loop
    vertex 19.496491228079133 5.000000000000993 5.000000000000891
    vertex 4.9964912280592895 2.433768040265412e-14 4.999999999999785
    vertex 19.496491228079172 1.092354248751645e-12 5.0000000000008935
  endloop
endfacet
facet normal 1.5633966054884746e-15 -1.173712458438687e-15 1.0
  outer loop
    vertex 4.9964912280592895 2.433768040265412e-14 4.999999999999785
    vertex 19.496491228079133 5.000000000000993 5.000000000000891
    vertex 4.996491228080236 32.000000000001094 5.00000000000103
  endloop
endfacet
facet normal 1.5633966054884746e-15 -1.173712458438687e-15 1.0
  outer loop
    vertex 4.996491228080236 32.000000000001094 5.00000000000103
    vertex 19.496491228079133 5.000000000000993 5.000000000000891
    vertex 4.996491228080834 76.00000000000108 5.000000000001005
  endloop
endfacet
facet normal 1.5633966054884746e-15 -1.173712458438687e-15 1.0
  outer loop
    vertex 4.996491228080834 76.00000000000108 5.000000000001005
    vertex 19.496491228079133 5.000000000000993 5.000000000000891
    vertex 4.996491228080823 98.00000000000108 5.000000000001037
  endloop
endfacet
facet normal 1.5633966054884746e-15 -1.173712458438687e-15 1.0
  outer loop
    vertex 4.996491228080236 32.000000000001094 5.00000000000103
    vertex 4.996491228080834 76.00000000000108 5.000000000001005
    vertex 4.996491228080293 54.000000000001094 5.000000000001018
  endloop
endfacet
facet normal 1.5633966054884746e-15 -1.173712458438687e-15 1.0
  outer loop
    vertex 4.9964912280592895 2.433768040265412e-14 4.999999999999785
    vertex 4.996491228080236 32.000000000001094 5.00000000000103
    vertex 4.9964912280621325 5.000000000000828 4.999999999999917
  endloop
endfacet
facet normal 1.5633966054884746e-15 -1.173712458438687e-15 1.0
  outer loop
    vertex 19.496491228079066 125.00000000000234 5.000000000000867
    vertex 33.99649122807398 5.000000000000956 5.000000000001005
    vertex 33.99649122807909 125.00000000000234 5.000000000000937
  endloop
endfacet
facet normal 1.5633966054884746e-15 -1.173712458438687e-15 1.0
  outer loop
    vertex 33.99649122807398 5.000000000000956 5.000000000001005
    vertex 19.496491228079066 125.00000000000234 5.000000000000867
    vertex 19.496491228079133 5.000000000000993 5.000000000000891
  endloop
endfacet
facet normal 1.5633966054884746e-15 -1.173712458438687e-15 1.0
  outer loop
    vertex 49.99649122807493 32.000000000001116 5.000000000001013
    vertex 54.99649122807906 5.000000000001057 5.000000000000999
    vertex 54.99649122807909 32.0000000000011 5.000000000000983
  endloop
endfacet
facet normal 1.5633966054884746e-15 -1.173712458438687e-15 1.0
  outer loop
    vertex 54.99649122807906 5.000000000001057 5.000000000000999
    vertex 49.99649122807493 32.000000000001116 5.000000000001013
    vertex 49.996491228078874 5.000000000001054 5.0000000000010285
  endloop
endfacet
facet normal 1.5633966054884746e-15 -1.173712458438687e-15 1.0
  outer loop
    vertex 49.996491228078874 5.000000000001054 5.0000000000010285
    vertex 49.99649122807493 32.000000000001116 5.000000000001013
    vertex 49.99649122807888 1.1085700910126514e-12 5.000000000001031
  endloop
endfacet
facet normal 1.5633966054884746e-15 -1.173712458438687e-15 1.0
  outer loop
    vertex 49.99649122807888 1.1085700910126514e-12 5.000000000001031
    vertex 49.99649122807493 32.000000000001116 5.000000000001013
    vertex 33.99649122807398 1.1000634196626127e-12 5.000000000001008
  endloop
endfacet
facet normal 1.5633966054884746e-15 -1.173712458438687e-15 1.0
  outer loop
    vertex 33.99649122807398 1.1000634196626127e-12 5.000000000001008
    vertex 49.99649122807493 32.000000000001116 5.000000000001013
    vertex 49.996491228070155 76.00000000000111 5.000000000000988
  endloop
endfacet
facet normal 1.5633966054884746e-15 -1.173712458438687e-15 1.0
  outer loop
    vertex 33.99649122807398 1.1000634196626127e-12 5.000000000001008
    vertex 49.996491228070155 76.00000000000111 5.000000000000988
    vertex 49.99649122807013 98.00000000000112 5.000000000000976
  endloop
endfacet
facet normal 1.5633966054884746e-15 -1.173712458438687e-15 1.0
  outer loop
    vertex 33.99649122807398 1.1000634196626127e-12 5.000000000001008
    vertex 49.99649122807013 98.00000000000112 5.000000000000976
    vertex 33.99649122807909 125.00000000000234 5.000000000000937
  endloop
endfacet
facet normal 1.5633966054884746e-15 -1.173712458438687e-15 1.0
  outer loop
    vertex 33.99649122807909 125.00000000000234 5.000000000000937
    vertex 49.99649122807013 98.00000000000112 5.000000000000976
    vertex 33.99649122807909 130.0000000000011 5.000000000000934
  endloop
endfacet
facet normal 1.5633966054884746e-15 -1.173712458438687e-15 1.0
  outer loop
    vertex 33.99649122807398 1.1000634196626127e-12 5.000000000001008
    vertex 33.99649122807909 125.00000000000234 5.000000000000937
    vertex 33.99649122807398 5.000000000000956 5.000000000001005
  endloop
endfacet
facet normal 1.5633966054884746e-15 -1.173712458438687e-15 1.0
  outer loop
    vertex 49.99649122807884 125.00000000000115 5.000000000001051
    vertex 54.99649122807911 98.00000000000112 5.000000000000946
    vertex 54.996491228079094 125.00000000000115 5.000000000000931
  endloop
endfacet
facet normal 1.5633966054884746e-15 -1.173712458438687e-15 1.0
  outer loop
    vertex 54.99649122807911 98.00000000000112 5.000000000000946
    vertex 49.99649122807884 125.00000000000115 5.000000000001051
    vertex 49.99649122807013 98.00000000000112 5.000000000000976
  endloop
endfacet
endsolid pared 1
