solid pared 2
facet normal 8.951593508001764e-15 1.0 -5.085730205266489e-15
  outer loop
    vertex 76.00000000000044 50.66315789473233 1.7462642443177855e-12
    vertex 98.00000000000043 50.6631578947321 5.000000000001892
    vertex 98.00000000000043 50.66315789473213 1.7222945292161284e-12
  endloop
endfacet
facet normal 8.951593508001764e-15 1.0 -5.085730205266489e-15
  outer loop
    vertex 98.00000000000043 50.6631578947321 5.000000000001892
    vertex 76.00000000000044 50.66315789473233 1.7462642443177855e-12
    vertex 76.00000000000045 50.6631578947323 5.000000000001916
  endloop
endfacet
facet normal 1.0 -9.06508712421624e-15 -1.1011604086476286e-15
  outer loop
    vertex 125.00000000000031 50.666666666665975 4.300448885885544e-13
    vertex 125.00000000000036 55.66315789473989 4.9999999999999885
    vertex 125.00000000000031 50.66666666666596 5.0000000000005995
  endloop
endfacet
facet normal 1.0 -9.06508712421624e-15 -1.1011604086476286e-15
  outer loop
    vertex 125.00000000000036 55.66315789473989 4.9999999999999885
    vertex 125.00000000000031 50.666666666665975 4.300448885885544e-13
    vertex 125.00000000000036 55.66315789473992 -1.4099832412739487e-15
  endloop
endfacet
facet normal -1.0 8.950525985862738e-15 2.210454042028686e-15
  outer loop
    vertex 76.00000000000004 5.6666666666664725 2.2461033033494003e-12
    vertex 75.99999999999999 0.6666666666665376 5.000000000000366
    vertex 76.00000000000006 5.666666666666416 5.000000000002326
  endloop
endfacet
facet normal -1.0 8.950525985862738e-15 2.210454042028686e-15
  outer loop
    vertex 75.99999999999999 0.6666666666665376 5.000000000000366
    vertex 76.00000000000004 5.6666666666664725 2.2461033033494003e-12
    vertex 75.99999999999997 0.6666666666666279 3.764655254201443e-13
  endloop
endfacet
facet normal 1.841721526760373e-14 1.0 -5.085730205266506e-15
  outer loop
    vertex 76.00000000000004 5.6666666666664725 2.2461033033494003e-12
    vertex 98.00000000000003 5.6666666666661785 5.000000000002302
    vertex 98.00000000000003 5.666666666666235 2.222133588247743e-12
  endloop
endfacet
facet normal 1.841721526760373e-14 1.0 -5.085730205266506e-15
  outer loop
    vertex 98.00000000000003 5.6666666666661785 5.000000000002302
    vertex 76.00000000000004 5.6666666666664725 2.2461033033494003e-12
    vertex 76.00000000000006 5.666666666666416 5.000000000002326
  endloop
endfacet
facet normal 3.8928049557250945e-15 1.0 5.326453730295683e-15
  outer loop
    vertex 4.999999999998705 0.6666666666672595 4.533096120695745e-13
    vertex 32.00000000000001 0.6666666666669324 5.000000000000413
    vertex 31.999999999999996 0.6666666666670903 4.236999640028216e-13
  endloop
endfacet
facet normal 3.8928049557250945e-15 1.0 5.326453730295683e-15
  outer loop
    vertex 32.00000000000001 0.6666666666669324 5.000000000000413
    vertex 4.999999999998705 0.6666666666672595 4.533096120695745e-13
    vertex 4.99999999999866 0.6666666666671692 5.000000000000442
  endloop
endfacet
facet normal 1.0 -8.950525985862738e-15 -1.082467449009527e-15
  outer loop
    vertex 4.99999999999866 0.6666666666671692 5.000000000000442
    vertex 4.99999999999875 5.66666666666707 7.888856234927743e-13
    vertex 4.999999999998705 5.666666666667013 5.000000000000869
  endloop
endfacet
facet normal 1.0 -8.950525985862738e-15 -1.082467449009527e-15
  outer loop
    vertex 4.99999999999875 5.66666666666707 7.888856234927743e-13
    vertex 4.99999999999866 0.6666666666671692 5.000000000000442
    vertex 4.999999999998705 0.6666666666672595 4.533096120695745e-13
  endloop
endfacet
facet normal 1.1317998947902256e-14 1.0 -5.085730205266491e-15
  outer loop
    vertex 98.0000000000005 55.66315789474017 2.7494673204842e-14
    vertex 125.00000000000036 55.66315789473989 4.9999999999999885
    vertex 125.00000000000036 55.66315789473992 -1.4099832412739487e-15
  endloop
endfacet
facet normal 1.1317998947902256e-14 1.0 -5.085730205266491e-15
  outer loop
    vertex 125.00000000000036 55.66315789473989 4.9999999999999885
    vertex 98.0000000000005 55.66315789474017 2.7494673204842e-14
    vertex 98.0000000000005 55.66315789474014 5.000000000000017
  endloop
endfacet
facet normal -1.0 9.394884340688437e-15 1.0824674490095249e-15
  outer loop
    vertex 98.0000000000005 55.66315789474014 5.000000000000017
    vertex 98.00000000000043 50.66315789473213 1.7222945292161284e-12
    vertex 98.00000000000043 50.6631578947321 5.000000000001892
  endloop
endfacet
facet normal -1.0 9.394884340688437e-15 1.0824674490095249e-15
  outer loop
    vertex 98.00000000000043 50.66315789473213 1.7222945292161284e-12
    vertex 98.0000000000005 55.66315789474014 5.000000000000017
    vertex 98.0000000000005 55.66315789474017 2.7494673204842e-14
  endloop
endfacet
facet normal 8.951593508001764e-15 1.0 -5.085730205266489e-15
  outer loop
    vertex 2.255973186038318e-14 5.666666666667115 7.938205648372331e-13
    vertex 4.999999999998705 5.666666666667013 5.000000000000869
    vertex 4.99999999999875 5.66666666666707 7.888856234927743e-13
  endloop
endfacet
facet normal 8.951593508001764e-15 1.0 -5.085730205266489e-15
  outer loop
    vertex 4.999999999998705 5.666666666667013 5.000000000000869
    vertex 2.255973186038318e-14 5.666666666667115 7.938205648372331e-13
    vertex -2.255973186038318e-14 5.666666666667059 5.000000000000873
  endloop
endfacet
facet normal 8.951593508001764e-15 1.0 -5.085730205266489e-15
  outer loop
    vertex 5.000000000000735 55.663157894741 1.2830847495592935e-13
    vertex 32.000000000000504 55.66315789474075 4.999999999999998
    vertex 32.0000000000005 55.66315789474075 9.940381850981338e-14
  endloop
endfacet
facet normal 8.951593508001764e-15 1.0 -5.085730205266489e-15
  outer loop
    vertex 32.000000000000504 55.66315789474075 4.999999999999998
    vertex 5.000000000000735 55.663157894741 1.2830847495592935e-13
    vertex 5.00000000000069 55.663157894741 5.0000000000000275
  endloop
endfacet
facet normal 1.0 -8.950525985862738e-15 -1.082467449009527e-15
  outer loop
    vertex 32.00000000000045 50.666666666662344 1.7942036745210999e-12
    vertex 32.000000000000504 55.66315789474075 4.999999999999998
    vertex 32.00000000000046 50.666666666662394 5.000000000001964
  endloop
endfacet
facet normal 1.0 -8.950525985862738e-15 -1.082467449009527e-15
  outer loop
    vertex 32.000000000000504 55.66315789474075 4.999999999999998
    vertex 32.00000000000045 50.666666666662344 1.7942036745210999e-12
    vertex 32.0000000000005 55.66315789474075 9.940381850981338e-14
  endloop
endfacet
facet normal 8.951593508001764e-15 1.0 -5.085730205266489e-15
  outer loop
    vertex 97.99999999999997 0.6666666666663007 3.524958103184872e-13
    vertex 125.00000000000031 0.66666666666603 5.000000000000313
    vertex 125.00000000000031 0.6666666666660639 3.235911538723712e-13
  endloop
endfacet
facet normal 8.951593508001764e-15 1.0 -5.085730205266489e-15
  outer loop
    vertex 125.00000000000031 0.66666666666603 5.000000000000313
    vertex 97.99999999999997 0.6666666666663007 3.524958103184872e-13
    vertex 97.99999999999999 0.6666666666662668 5.000000000000342
  endloop
endfacet
facet normal 1.0 -8.950525985862738e-15 -1.082467449009527e-15
  outer loop
    vertex 97.99999999999999 0.6666666666662668 5.000000000000342
    vertex 98.00000000000003 5.666666666666235 2.222133588247743e-12
    vertex 98.00000000000003 5.6666666666661785 5.000000000002302
  endloop
endfacet
facet normal 1.0 -8.950525985862738e-15 -1.082467449009527e-15
  outer loop
    vertex 98.00000000000003 5.666666666666235 2.222133588247743e-12
    vertex 97.99999999999999 0.6666666666662668 5.000000000000342
    vertex 97.99999999999997 0.6666666666663007 3.524958103184872e-13
  endloop
endfacet
facet normal 9.264459611834763e-15 1.0 -5.085730205266489e-15
  outer loop
    vertex 125.00000000000047 20.16666666666594 5.851430451286888e-13
    vertex 130.00000000000017 20.166666666665893 5.00000000000075
    vertex 130.0000000000002 20.166666666665925 5.795031121635929e-13
  endloop
endfacet
facet normal 9.264459611834763e-15 1.0 -5.085730205266489e-15
  outer loop
    vertex 130.00000000000017 20.166666666665893 5.00000000000075
    vertex 125.00000000000047 20.16666666666594 5.851430451286888e-13
    vertex 125.00000000000047 20.166666666665915 5.000000000000755
  endloop
endfacet
facet normal -9.22448227634499e-15 -1.0 5.085730205266489e-15
  outer loop
    vertex 130.00000000000003 5.666666666665931 5.000000000000914
    vertex 125.00000000000036 5.666666666665964 8.389400285579995e-13
    vertex 130.00000000000009 5.666666666665919 8.340050872135406e-13
  endloop
endfacet
facet normal -9.22448227634499e-15 -1.0 5.085730205266489e-15
  outer loop
    vertex 125.00000000000036 5.666666666665964 8.389400285579995e-13
    vertex 130.00000000000003 5.666666666665931 5.000000000000914
    vertex 125.00000000000036 5.666666666665897 5.000000000000918
  endloop
endfacet
facet normal 1.0 -9.009275287582483e-15 -7.299716386910394e-16
  outer loop
    vertex 130.00000000000009 5.666666666665919 8.340050872135406e-13
    vertex 130.00000000000017 20.166666666665893 5.00000000000075
    vertex 130.00000000000003 5.666666666665931 5.000000000000914
  endloop
endfacet
facet normal 1.0 -9.009275287582483e-15 -7.299716386910394e-16
  outer loop
    vertex 130.00000000000017 20.166666666665893 5.00000000000075
    vertex 130.00000000000009 5.666666666665919 8.340050872135406e-13
    vertex 130.0000000000002 20.166666666665925 5.795031121635929e-13
  endloop
endfacet
facet normal 1.0 -9.061692720116875e-15 -1.0491761780350026e-15
  outer loop
    vertex 125.00000000000031 0.66666666666603 5.000000000000313
    vertex 125.00000000000036 5.666666666665964 8.389400285579995e-13
    vertex 125.00000000000036 5.666666666665897 5.000000000000918
  endloop
endfacet
facet normal 1.0 -9.061692720116875e-15 -1.0491761780350026e-15
  outer loop
    vertex 125.00000000000036 5.666666666665964 8.389400285579995e-13
    vertex 125.00000000000031 0.66666666666603 5.000000000000313
    vertex 125.00000000000031 0.6666666666660639 3.235911538723712e-13
  endloop
endfacet
facet normal 4.218782628200783e-15 1.0 -5.085730205266479e-15
  outer loop
    vertex 32.00000000000045 50.666666666662344 1.7942036745210999e-12
    vertex 54.000000000000455 50.666666666662195 5.00000000000194
    vertex 54.00000000000044 50.666666666662216 1.7702339594194426e-12
  endloop
endfacet
facet normal 4.218782628200783e-15 1.0 -5.085730205266479e-15
  outer loop
    vertex 54.000000000000455 50.666666666662195 5.00000000000194
    vertex 32.00000000000045 50.666666666662344 1.7942036745210999e-12
    vertex 32.00000000000046 50.666666666662394 5.000000000001964
  endloop
endfacet
facet normal 7.768390788051522e-15 1.0 -2.4826842213759465e-15
  outer loop
    vertex 54.00000000000049 55.66315789474057 7.543410340815625e-14
    vertex 76.00000000000053 55.663157894740344 5.000000000000041
    vertex 76.00000000000051 55.663157894740365 5.1464388306499126e-14
  endloop
endfacet
facet normal 7.768390788051522e-15 1.0 -2.4826842213759465e-15
  outer loop
    vertex 76.00000000000053 55.663157894740344 5.000000000000041
    vertex 54.00000000000049 55.66315789474057 7.543410340815625e-14
    vertex 54.00000000000052 55.663157894740536 5.000000000000065
  endloop
endfacet
facet normal 1.0 -8.506167631037038e-15 -1.0824674490095292e-15
  outer loop
    vertex 76.00000000000044 50.66315789473233 1.7462642443177855e-12
    vertex 76.00000000000053 55.663157894740344 5.000000000000041
    vertex 76.00000000000045 50.6631578947323 5.000000000001916
  endloop
endfacet
facet normal 1.0 -8.506167631037038e-15 -1.0824674490095292e-15
  outer loop
    vertex 76.00000000000053 55.663157894740344 5.000000000000041
    vertex 76.00000000000044 50.66315789473233 1.7462642443177855e-12
    vertex 76.00000000000051 55.663157894740365 5.1464388306499126e-14
  endloop
endfacet
facet normal -1.0 9.172705163275586e-15 3.3384406350478454e-15
  outer loop
    vertex 54.00000000000052 55.663157894740536 5.000000000000065
    vertex 54.00000000000044 50.666666666662216 1.7702339594194426e-12
    vertex 54.000000000000455 50.666666666662195 5.00000000000194
  endloop
endfacet
facet normal -1.0 9.172705163275586e-15 3.3384406350478454e-15
  outer loop
    vertex 54.00000000000044 50.666666666662216 1.7702339594194426e-12
    vertex 54.00000000000052 55.663157894740536 5.000000000000065
    vertex 54.00000000000049 55.66315789474057 7.543410340815625e-14
  endloop
endfacet
facet normal 8.951593508001764e-15 1.0 -5.085730205266489e-15
  outer loop
    vertex 53.99999999999999 0.6666666666668196 4.0043524052180143e-13
    vertex 75.99999999999999 0.6666666666665376 5.000000000000366
    vertex 75.99999999999997 0.6666666666666279 3.764655254201443e-13
  endloop
endfacet
facet normal 8.951593508001764e-15 1.0 -5.085730205266489e-15
  outer loop
    vertex 75.99999999999999 0.6666666666665376 5.000000000000366
    vertex 53.99999999999999 0.6666666666668196 4.0043524052180143e-13
    vertex 54.0 0.6666666666667294 5.00000000000039
  endloop
endfacet
facet normal 1.0 -9.237570196903993e-15 -1.0824674490091494e-15
  outer loop
    vertex 125.00000000000047 20.16666666666594 5.851430451286888e-13
    vertex 125.00000000000063 34.6666666666659 5.00000000000023
    vertex 125.00000000000047 20.166666666665915 5.000000000000755
  endloop
endfacet
facet normal 1.0 -9.237570196903993e-15 -1.0824674490091494e-15
  outer loop
    vertex 125.00000000000063 34.6666666666659 5.00000000000023
    vertex 125.00000000000047 20.16666666666594 5.851430451286888e-13
    vertex 125.00000000000063 34.666666666665904 1.952826789164419e-13
  endloop
endfacet
facet normal 1.0 -9.053871348433378e-15 -1.1011604086476286e-15
  outer loop
    vertex 130.0000000000003 34.66666666666585 5.000000000000225
    vertex 130.00000000000048 50.66666666666593 4.2440495562345857e-13
    vertex 130.00000000000043 50.66666666666592 5.000000000000594
  endloop
endfacet
facet normal 1.0 -9.053871348433378e-15 -1.1011604086476286e-15
  outer loop
    vertex 130.00000000000048 50.66666666666593 4.2440495562345857e-13
    vertex 130.0000000000003 34.66666666666585 5.000000000000225
    vertex 130.0000000000003 34.66666666666586 1.903477375719831e-13
  endloop
endfacet
facet normal -9.501953427017084e-15 -1.0 5.08573020526649e-15
  outer loop
    vertex 130.0000000000003 34.66666666666585 5.000000000000225
    vertex 125.00000000000063 34.666666666665904 1.952826789164419e-13
    vertex 130.0000000000003 34.66666666666586 1.903477375719831e-13
  endloop
endfacet
facet normal -9.501953427017084e-15 -1.0 5.08573020526649e-15
  outer loop
    vertex 125.00000000000063 34.666666666665904 1.952826789164419e-13
    vertex 130.0000000000003 34.66666666666585 5.000000000000225
    vertex 125.00000000000063 34.6666666666659 5.00000000000023
  endloop
endfacet
facet normal 9.501953427017084e-15 1.0 -5.08573020526649e-15
  outer loop
    vertex 125.00000000000031 50.666666666665975 4.300448885885544e-13
    vertex 130.00000000000043 50.66666666666592 5.000000000000594
    vertex 130.00000000000048 50.66666666666593 4.2440495562345857e-13
  endloop
endfacet
facet normal 9.501953427017084e-15 1.0 -5.08573020526649e-15
  outer loop
    vertex 130.00000000000043 50.66666666666592 5.000000000000594
    vertex 125.00000000000031 50.666666666665975 4.300448885885544e-13
    vertex 125.00000000000031 50.66666666666596 5.0000000000005995
  endloop
endfacet
facet normal 1.3684404387802778e-14 1.0 5.326453730295669e-15
  outer loop
    vertex 31.999999999999954 5.666666666666946 2.2933377419320777e-12
    vertex 54.00000000000005 5.666666666666653 5.000000000002349
    vertex 54.000000000000036 5.666666666666675 2.2693680268304204e-12
  endloop
endfacet
facet normal 1.3684404387802778e-14 1.0 5.326453730295669e-15
  outer loop
    vertex 54.00000000000005 5.666666666666653 5.000000000002349
    vertex 31.999999999999954 5.666666666666946 2.2933377419320777e-12
    vertex 31.999999999999964 5.666666666666855 5.000000000002373
  endloop
endfacet
facet normal -1.0 8.061809276211338e-15 1.082467449009513e-15
  outer loop
    vertex 31.999999999999954 5.666666666666946 2.2933377419320777e-12
    vertex 32.00000000000001 0.6666666666669324 5.000000000000413
    vertex 31.999999999999964 5.666666666666855 5.000000000002373
  endloop
endfacet
facet normal -1.0 8.061809276211338e-15 1.082467449009513e-15
  outer loop
    vertex 32.00000000000001 0.6666666666669324 5.000000000000413
    vertex 31.999999999999954 5.666666666666946 2.2933377419320777e-12
    vertex 31.999999999999996 0.6666666666670903 4.236999640028216e-13
  endloop
endfacet
facet normal 1.0 -8.950525985862738e-15 -1.082467449009527e-15
  outer loop
    vertex 54.0 0.6666666666667294 5.00000000000039
    vertex 54.000000000000036 5.666666666666675 2.2693680268304204e-12
    vertex 54.00000000000005 5.666666666666653 5.000000000002349
  endloop
endfacet
facet normal 1.0 -8.950525985862738e-15 -1.082467449009527e-15
  outer loop
    vertex 54.000000000000036 5.666666666666675 2.2693680268304204e-12
    vertex 54.0 0.6666666666667294 5.00000000000039
    vertex 53.99999999999999 0.6666666666668196 4.0043524052180143e-13
  endloop
endfacet
facet normal 1.0 -8.530702995698995e-15 1.1711021971519246e-15
  outer loop
    vertex -2.255973186038318e-14 5.666666666667059 5.000000000000873
    vertex 1.127986593019159e-13 20.16666666666643 6.302625088494551e-13
    vertex 6.767919558114953e-14 20.166666666666362 5.000000000001071
  endloop
endfacet
facet normal 1.0 -8.530702995698995e-15 1.1711021971519246e-15
  outer loop
    vertex 1.127986593019159e-13 20.16666666666643 6.302625088494551e-13
    vertex -2.255973186038318e-14 5.666666666667059 5.000000000000873
    vertex 2.255973186038318e-14 5.666666666667115 7.938205648372331e-13
  endloop
endfacet
facet normal 1.0 -9.031547726850053e-15 2.6774878610542393e-15
  outer loop
    vertex 4.999999999999833 20.166666666666384 9.855782856504901e-13
    vertex 4.999999999999968 34.66666666666696 5.00000000000036
    vertex 4.999999999999833 20.166666666666316 5.000000000001246
  endloop
endfacet
facet normal 1.0 -9.031547726850053e-15 2.6774878610542393e-15
  outer loop
    vertex 4.999999999999968 34.66666666666696 5.00000000000036
    vertex 4.999999999999833 20.166666666666384 9.855782856504901e-13
    vertex 5.000000000000013 34.66666666666698 3.250011371136452e-13
  endloop
endfacet
facet normal 1.0 -8.950525985862738e-15 -1.082467449009527e-15
  outer loop
    vertex 5.000000000000668 49.26315789473292 4.765743355505946e-13
    vertex 5.00000000000069 55.663157894741 5.0000000000000275
    vertex 5.000000000000623 49.26315789473294 5.000000000000647
  endloop
endfacet
facet normal 1.0 -8.950525985862738e-15 -1.082467449009527e-15
  outer loop
    vertex 5.00000000000069 55.663157894741 5.0000000000000275
    vertex 5.000000000000668 49.26315789473292 4.765743355505946e-13
    vertex 5.000000000000735 55.663157894741 1.2830847495592935e-13
  endloop
endfacet
facet normal 1.0 -9.326521516869099e-15 -1.082467449009525e-15
  outer loop
    vertex 2.9327651418498134e-13 34.66666666666701 5.000000000000365
    vertex 4.963141009284299e-13 49.26315789473297 4.822142685156905e-13
    vertex 4.511946372076636e-13 49.26315789473299 5.000000000000652
  endloop
endfacet
facet normal 1.0 -9.326521516869099e-15 -1.082467449009525e-15
  outer loop
    vertex 4.963141009284299e-13 49.26315789473297 4.822142685156905e-13
    vertex 2.9327651418498134e-13 34.66666666666701 5.000000000000365
    vertex 3.383959779057477e-13 34.66666666666702 3.3064107007874095e-13
  endloop
endfacet
facet normal -8.951593508001764e-15 -1.0 5.085730205266489e-15
  outer loop
    vertex 5.000000000000623 49.26315789473294 5.000000000000647
    vertex 4.963141009284299e-13 49.26315789473297 4.822142685156905e-13
    vertex 5.000000000000668 49.26315789473292 4.765743355505946e-13
  endloop
endfacet
facet normal -8.951593508001764e-15 -1.0 5.085730205266489e-15
  outer loop
    vertex 4.963141009284299e-13 49.26315789473297 4.822142685156905e-13
    vertex 5.000000000000623 49.26315789473294 5.000000000000647
    vertex 4.511946372076636e-13 49.26315789473299 5.000000000000652
  endloop
endfacet
facet normal 8.951593508001764e-15 1.0 -5.085730205266489e-15
  outer loop
    vertex 3.383959779057477e-13 34.66666666666702 3.3064107007874095e-13
    vertex 4.999999999999968 34.66666666666696 5.00000000000036
    vertex 5.000000000000013 34.66666666666698 3.250011371136452e-13
  endloop
endfacet
facet normal 8.951593508001764e-15 1.0 -5.085730205266489e-15
  outer loop
    vertex 4.999999999999968 34.66666666666696 5.00000000000036
    vertex 3.383959779057477e-13 34.66666666666702 3.3064107007874095e-13
    vertex 2.9327651418498134e-13 34.66666666666701 5.000000000000365
  endloop
endfacet
facet normal -1.0064006321630206e-14 -1.0 3.6576812136744046e-14
  outer loop
    vertex 77.99999999999946 22.26315789473238 4.9999999999996225
    vertex 105.00000000000021 22.263157894732093 1.9493018310612342e-12
    vertex 105.00000000000021 22.26315789473213 4.999999999999592
  endloop
endfacet
facet normal -1.0064006321630206e-14 -1.0 3.6576812136744046e-14
  outer loop
    vertex 105.00000000000021 22.263157894732093 1.9493018310612342e-12
    vertex 77.99999999999946 22.26315789473238 4.9999999999996225
    vertex 77.99999999999945 22.26315789473238 1.9789114791279872e-12
  endloop
endfacet
facet normal 1.0 -6.964799587735501e-15 1.2453371667223663e-14
  outer loop
    vertex 77.99999999999933 9.463157894733051 4.999999999999146
    vertex 77.99999999999945 22.26315789473238 1.9789114791279872e-12
    vertex 77.99999999999946 22.26315789473238 4.9999999999996225
  endloop
endfacet
facet normal 1.0 -6.964799587735501e-15 1.2453371667223663e-14
  outer loop
    vertex 77.99999999999945 22.26315789473238 1.9789114791279872e-12
    vertex 77.99999999999933 9.463157894733051 4.999999999999146
    vertex 77.9999999999996 9.463157894733062 6.901867966035979e-13
  endloop
endfacet
facet normal 1.5134043365244879e-13 1.0 -8.043423467171823e-15
  outer loop
    vertex 77.9999999999996 9.463157894733062 6.901867966035979e-13
    vertex 104.99999999999991 9.463157894732092 4.999999999999116
    vertex 104.99999999999991 9.463157894732126 1.5636714145728091e-12
  endloop
endfacet
facet normal 1.5134043365244879e-13 1.0 -8.043423467171823e-15
  outer loop
    vertex 104.99999999999991 9.463157894732092 4.999999999999116
    vertex 77.9999999999996 9.463157894733062 6.901867966035979e-13
    vertex 77.99999999999933 9.463157894733051 4.999999999999146
  endloop
endfacet
facet normal -1.0 1.159816118336569e-14 1.0824674490094742e-15
  outer loop
    vertex 105.00000000000021 22.263157894732093 1.9493018310612342e-12
    vertex 104.99999999999991 9.463157894732092 4.999999999999116
    vertex 105.00000000000021 22.26315789473213 4.999999999999592
  endloop
endfacet
facet normal -1.0 1.159816118336569e-14 1.0824674490094742e-15
  outer loop
    vertex 104.99999999999991 9.463157894732092 4.999999999999116
    vertex 105.00000000000021 22.263157894732093 1.9493018310612342e-12
    vertex 104.99999999999991 9.463157894732126 1.5636714145728091e-12
  endloop
endfacet
facet normal -1.3401244762513865e-14 -1.0 3.20715402415546e-14
  outer loop
    vertex 47.749999999999865 24.563157894733546 4.999999999999102
    vertex 61.249999999999936 24.563157894733408 3.6095570976613087e-13
    vertex 61.24999999999994 24.563157894733422 4.999999999999087
  endloop
endfacet
facet normal -1.3401244762513865e-14 -1.0 3.20715402415546e-14
  outer loop
    vertex 61.249999999999936 24.563157894733408 3.6095570976613087e-13
    vertex 47.749999999999865 24.563157894733546 4.999999999999102
    vertex 47.74999999999986 24.563157894733532 1.9098223003055634e-12
  endloop
endfacet
facet normal 1.0 -8.950525985862738e-15 -1.082467449009527e-15
  outer loop
    vertex 47.74999999999971 7.163157894733844 1.1857959059113908e-12
    vertex 47.749999999999865 24.563157894733546 4.999999999999102
    vertex 47.74999999999972 7.16315789473389 4.999999999999732
  endloop
endfacet
facet normal 1.0 -8.950525985862738e-15 -1.082467449009527e-15
  outer loop
    vertex 47.749999999999865 24.563157894733546 4.999999999999102
    vertex 47.74999999999971 7.163157894733844 1.1857959059113908e-12
    vertex 47.74999999999986 24.563157894733532 1.9098223003055634e-12
  endloop
endfacet
facet normal 1.4355354395705676e-13 1.0 2.4688776216213494e-15
  outer loop
    vertex 47.74999999999971 7.163157894733844 1.1857959059113908e-12
    vertex 61.24999999999885 7.163157894733359 4.999999999999718
    vertex 61.24999999999938 7.163157894733484 1.1716960734986513e-12
  endloop
endfacet
facet normal 1.4355354395705676e-13 1.0 2.4688776216213494e-15
  outer loop
    vertex 61.24999999999885 7.163157894733359 4.999999999999718
    vertex 47.74999999999971 7.163157894733844 1.1857959059113908e-12
    vertex 47.74999999999972 7.16315789473389 4.999999999999732
  endloop
endfacet
facet normal -1.0 1.625434722035362e-14 -2.5989210783453742e-14
  outer loop
    vertex 61.24999999999994 24.563157894733422 4.999999999999087
    vertex 61.24999999999938 7.163157894733484 1.1716960734986513e-12
    vertex 61.24999999999885 7.163157894733359 4.999999999999718
  endloop
endfacet
facet normal -1.0 1.625434722035362e-14 -2.5989210783453742e-14
  outer loop
    vertex 61.24999999999938 7.163157894733484 1.1716960734986513e-12
    vertex 61.24999999999994 24.563157894733422 4.999999999999087
    vertex 61.249999999999936 24.563157894733408 3.6095570976613087e-13
  endloop
endfacet
facet normal -5.948078911204826e-15 -1.0 -9.6712032321913e-16
  outer loop
    vertex 6.767919558114953e-14 20.166666666666362 5.000000000001071
    vertex 4.999999999999833 20.166666666666384 9.855782856504901e-13
    vertex 4.999999999999833 20.166666666666316 5.000000000001246
  endloop
endfacet
facet normal -5.948078911204826e-15 -1.0 -9.6712032321913e-16
  outer loop
    vertex 4.999999999999833 20.166666666666384 9.855782856504901e-13
    vertex 6.767919558114953e-14 20.166666666666362 5.000000000001071
    vertex 1.127986593019159e-13 20.16666666666643 6.302625088494551e-13
  endloop
endfacet
facet normal 2.1809088757282093e-15 5.976719264865029e-16 1.0
  outer loop
    vertex 5.000000000000623 49.26315789473294 5.000000000000647
    vertex 32.000000000000504 55.66315789474075 4.999999999999998
    vertex 5.00000000000069 55.663157894741 5.0000000000000275
  endloop
endfacet
facet normal 2.1809088757282093e-15 5.976719264865029e-16 1.0
  outer loop
    vertex 32.000000000000504 55.66315789474075 4.999999999999998
    vertex 5.000000000000623 49.26315789473294 5.000000000000647
    vertex 32.00000000000046 50.666666666662394 5.000000000001964
  endloop
endfacet
facet normal 2.1809088757282093e-15 5.976719264865029e-16 1.0
  outer loop
    vertex 32.00000000000046 50.666666666662394 5.000000000001964
    vertex 5.000000000000623 49.26315789473294 5.000000000000647
    vertex 54.000000000000455 50.666666666662195 5.00000000000194
  endloop
endfacet
facet normal 2.1809088757282093e-15 5.976719264865029e-16 1.0
  outer loop
    vertex 54.000000000000455 50.666666666662195 5.00000000000194
    vertex 5.000000000000623 49.26315789473294 5.000000000000647
    vertex 76.00000000000045 50.6631578947323 5.000000000001916
  endloop
endfacet
facet normal 2.1809088757282093e-15 5.976719264865029e-16 1.0
  outer loop
    vertex 76.00000000000045 50.6631578947323 5.000000000001916
    vertex 5.000000000000623 49.26315789473294 5.000000000000647
    vertex 98.00000000000043 50.6631578947321 5.000000000001892
  endloop
endfacet
facet normal 2.1809088757282093e-15 5.976719264865029e-16 1.0
  outer loop
    vertex 2.9327651418498134e-13 34.66666666666701 5.000000000000365
    vertex 5.000000000000623 49.26315789473294 5.000000000000647
    vertex 4.511946372076636e-13 49.26315789473299 5.000000000000652
  endloop
endfacet
facet normal 2.1809088757282093e-15 5.976719264865029e-16 1.0
  outer loop
    vertex 98.00000000000043 50.6631578947321 5.000000000001892
    vertex 125.00000000000036 55.66315789473989 4.9999999999999885
    vertex 98.0000000000005 55.66315789474014 5.000000000000017
  endloop
endfacet
facet normal 2.1809088757282093e-15 5.976719264865029e-16 1.0
  outer loop
    vertex 125.00000000000036 55.66315789473989 4.9999999999999885
    vertex 98.00000000000043 50.6631578947321 5.000000000001892
    vertex 125.00000000000031 50.66666666666596 5.0000000000005995
  endloop
endfacet
facet normal 2.1809088757282093e-15 5.976719264865029e-16 1.0
  outer loop
    vertex 125.00000000000031 50.66666666666596 5.0000000000005995
    vertex 98.00000000000043 50.6631578947321 5.000000000001892
    vertex 130.00000000000043 50.66666666666592 5.000000000000594
  endloop
endfacet
facet normal 2.1809088757282093e-15 5.976719264865029e-16 1.0
  outer loop
    vertex 130.00000000000043 50.66666666666592 5.000000000000594
    vertex 98.00000000000043 50.6631578947321 5.000000000001892
    vertex 130.0000000000003 34.66666666666585 5.000000000000225
  endloop
endfacet
facet normal 2.1809088757282093e-15 5.976719264865029e-16 1.0
  outer loop
    vertex 130.0000000000003 34.66666666666585 5.000000000000225
    vertex 98.00000000000043 50.6631578947321 5.000000000001892
    vertex 5.000000000000623 49.26315789473294 5.000000000000647
  endloop
endfacet
facet normal 2.1809088757282093e-15 5.976719264865029e-16 1.0
  outer loop
    vertex 130.0000000000003 34.66666666666585 5.000000000000225
    vertex 5.000000000000623 49.26315789473294 5.000000000000647
    vertex 2.9327651418498134e-13 34.66666666666701 5.000000000000365
  endloop
endfacet
facet normal 2.1809088757282093e-15 5.976719264865029e-16 1.0
  outer loop
    vertex 130.0000000000003 34.66666666666585 5.000000000000225
    vertex 2.9327651418498134e-13 34.66666666666701 5.000000000000365
    vertex 4.999999999999968 34.66666666666696 5.00000000000036
  endloop
endfacet
facet normal 2.1809088757282093e-15 5.976719264865029e-16 1.0
  outer loop
    vertex 130.0000000000003 34.66666666666585 5.000000000000225
    vertex 4.999999999999968 34.66666666666696 5.00000000000036
    vertex 125.00000000000063 34.6666666666659 5.00000000000023
  endloop
endfacet
facet normal 2.1809088757282093e-15 5.976719264865029e-16 1.0
  outer loop
    vertex 54.000000000000455 50.666666666662195 5.00000000000194
    vertex 76.00000000000053 55.663157894740344 5.000000000000041
    vertex 54.00000000000052 55.663157894740536 5.000000000000065
  endloop
endfacet
facet normal 2.1809088757282093e-15 5.976719264865029e-16 1.0
  outer loop
    vertex 76.00000000000053 55.663157894740344 5.000000000000041
    vertex 54.000000000000455 50.666666666662195 5.00000000000194
    vertex 76.00000000000045 50.6631578947323 5.000000000001916
  endloop
endfacet
facet normal 2.1809088757282093e-15 5.976719264865029e-16 1.0
  outer loop
    vertex 125.00000000000063 34.6666666666659 5.00000000000023
    vertex 105.00000000000021 22.26315789473213 4.999999999999592
    vertex 125.00000000000047 20.166666666665915 5.000000000000755
  endloop
endfacet
facet normal 2.1809088757282093e-15 5.976719264865029e-16 1.0
  outer loop
    vertex 105.00000000000021 22.26315789473213 4.999999999999592
    vertex 125.00000000000063 34.6666666666659 5.00000000000023
    vertex 61.24999999999994 24.563157894733422 4.999999999999087
  endloop
endfacet
facet normal 2.1809088757282093e-15 5.976719264865029e-16 1.0
  outer loop
    vertex 61.24999999999994 24.563157894733422 4.999999999999087
    vertex 125.00000000000063 34.6666666666659 5.00000000000023
    vertex 47.749999999999865 24.563157894733546 4.999999999999102
  endloop
endfacet
facet normal 2.1809088757282093e-15 5.976719264865029e-16 1.0
  outer loop
    vertex 105.00000000000021 22.26315789473213 4.999999999999592
    vertex 61.24999999999994 24.563157894733422 4.999999999999087
    vertex 77.99999999999946 22.26315789473238 4.9999999999996225
  endloop
endfacet
facet normal 2.1809088757282093e-15 5.976719264865029e-16 1.0
  outer loop
    vertex 125.00000000000047 20.166666666665915 5.000000000000755
    vertex 105.00000000000021 22.26315789473213 4.999999999999592
    vertex 104.99999999999991 9.463157894732092 4.999999999999116
  endloop
endfacet
facet normal 2.1809088757282093e-15 5.976719264865029e-16 1.0
  outer loop
    vertex 61.24999999999885 7.163157894733359 4.999999999999718
    vertex 77.99999999999946 22.26315789473238 4.9999999999996225
    vertex 61.24999999999994 24.563157894733422 4.999999999999087
  endloop
endfacet
facet normal 2.1809088757282093e-15 5.976719264865029e-16 1.0
  outer loop
    vertex 77.99999999999946 22.26315789473238 4.9999999999996225
    vertex 61.24999999999885 7.163157894733359 4.999999999999718
    vertex 77.99999999999933 9.463157894733051 4.999999999999146
  endloop
endfacet
facet normal 2.1809088757282093e-15 5.976719264865029e-16 1.0
  outer loop
    vertex 77.99999999999933 9.463157894733051 4.999999999999146
    vertex 61.24999999999885 7.163157894733359 4.999999999999718
    vertex 104.99999999999991 9.463157894732092 4.999999999999116
  endloop
endfacet
facet normal 2.1809088757282093e-15 5.976719264865029e-16 1.0
  outer loop
    vertex -2.255973186038318e-14 5.666666666667059 5.000000000000873
    vertex 4.999999999999833 20.166666666666316 5.000000000001246
    vertex 6.767919558114953e-14 20.166666666666362 5.000000000001071
  endloop
endfacet
facet normal 2.1809088757282093e-15 5.976719264865029e-16 1.0
  outer loop
    vertex 4.999999999999833 20.166666666666316 5.000000000001246
    vertex -2.255973186038318e-14 5.666666666667059 5.000000000000873
    vertex 47.74999999999972 7.16315789473389 4.999999999999732
  endloop
endfacet
facet normal 2.1809088757282093e-15 5.976719264865029e-16 1.0
  outer loop
    vertex 47.74999999999972 7.16315789473389 4.999999999999732
    vertex -2.255973186038318e-14 5.666666666667059 5.000000000000873
    vertex 61.24999999999885 7.163157894733359 4.999999999999718
  endloop
endfacet
facet normal 2.1809088757282093e-15 5.976719264865029e-16 1.0
  outer loop
    vertex 61.24999999999885 7.163157894733359 4.999999999999718
    vertex -2.255973186038318e-14 5.666666666667059 5.000000000000873
    vertex 31.999999999999964 5.666666666666855 5.000000000002373
  endloop
endfacet
facet normal 2.1809088757282093e-15 5.976719264865029e-16 1.0
  outer loop
    vertex 31.999999999999964 5.666666666666855 5.000000000002373
    vertex -2.255973186038318e-14 5.666666666667059 5.000000000000873
    vertex 4.999999999998705 5.666666666667013 5.000000000000869
  endloop
endfacet
facet normal 2.1809088757282093e-15 5.976719264865029e-16 1.0
  outer loop
    vertex 31.999999999999964 5.666666666666855 5.000000000002373
    vertex 4.999999999998705 5.666666666667013 5.000000000000869
    vertex 32.00000000000001 0.6666666666669324 5.000000000000413
  endloop
endfacet
facet normal 2.1809088757282093e-15 5.976719264865029e-16 1.0
  outer loop
    vertex 32.00000000000001 0.6666666666669324 5.000000000000413
    vertex 4.999999999998705 5.666666666667013 5.000000000000869
    vertex 4.99999999999866 0.6666666666671692 5.000000000000442
  endloop
endfacet
facet normal 2.1809088757282093e-15 5.976719264865029e-16 1.0
  outer loop
    vertex 54.0 0.6666666666667294 5.00000000000039
    vertex 76.00000000000006 5.666666666666416 5.000000000002326
    vertex 54.00000000000005 5.666666666666653 5.000000000002349
  endloop
endfacet
facet normal 2.1809088757282093e-15 5.976719264865029e-16 1.0
  outer loop
    vertex 76.00000000000006 5.666666666666416 5.000000000002326
    vertex 54.0 0.6666666666667294 5.00000000000039
    vertex 75.99999999999999 0.6666666666665376 5.000000000000366
  endloop
endfacet
facet normal 2.1809088757282093e-15 5.976719264865029e-16 1.0
  outer loop
    vertex 125.00000000000047 20.166666666665915 5.000000000000755
    vertex 130.00000000000003 5.666666666665931 5.000000000000914
    vertex 130.00000000000017 20.166666666665893 5.00000000000075
  endloop
endfacet
facet normal 2.1809088757282093e-15 5.976719264865029e-16 1.0
  outer loop
    vertex 130.00000000000003 5.666666666665931 5.000000000000914
    vertex 125.00000000000047 20.166666666665915 5.000000000000755
    vertex 104.99999999999991 9.463157894732092 4.999999999999116
  endloop
endfacet
facet normal 2.1809088757282093e-15 5.976719264865029e-16 1.0
  outer loop
    vertex 130.00000000000003 5.666666666665931 5.000000000000914
    vertex 104.99999999999991 9.463157894732092 4.999999999999116
    vertex 61.24999999999885 7.163157894733359 4.999999999999718
  endloop
endfacet
facet normal 2.1809088757282093e-15 5.976719264865029e-16 1.0
  outer loop
    vertex 130.00000000000003 5.666666666665931 5.000000000000914
    vertex 61.24999999999885 7.163157894733359 4.999999999999718
    vertex 54.00000000000005 5.666666666666653 5.000000000002349
  endloop
endfacet
facet normal 2.1809088757282093e-15 5.976719264865029e-16 1.0
  outer loop
    vertex 54.00000000000005 5.666666666666653 5.000000000002349
    vertex 61.24999999999885 7.163157894733359 4.999999999999718
    vertex 31.999999999999964 5.666666666666855 5.000000000002373
  endloop
endfacet
facet normal 2.1809088757282093e-15 5.976719264865029e-16 1.0
  outer loop
    vertex 130.00000000000003 5.666666666665931 5.000000000000914
    vertex 54.00000000000005 5.666666666666653 5.000000000002349
    vertex 76.00000000000006 5.666666666666416 5.000000000002326
  endloop
endfacet
facet normal 2.1809088757282093e-15 5.976719264865029e-16 1.0
  outer loop
    vertex 130.00000000000003 5.666666666665931 5.000000000000914
    vertex 76.00000000000006 5.666666666666416 5.000000000002326
    vertex 98.00000000000003 5.6666666666661785 5.000000000002302
  endloop
endfacet
facet normal 2.1809088757282093e-15 5.976719264865029e-16 1.0
  outer loop
    vertex 130.00000000000003 5.666666666665931 5.000000000000914
    vertex 98.00000000000003 5.6666666666661785 5.000000000002302
    vertex 125.00000000000036 5.666666666665897 5.000000000000918
  endloop
endfacet
facet normal 2.1809088757282093e-15 5.976719264865029e-16 1.0
  outer loop
    vertex 125.00000000000036 5.666666666665897 5.000000000000918
    vertex 98.00000000000003 5.6666666666661785 5.000000000002302
    vertex 97.99999999999999 0.6666666666662668 5.000000000000342
  endloop
endfacet
facet normal 2.1809088757282093e-15 5.976719264865029e-16 1.0
  outer loop
    vertex 125.00000000000036 5.666666666665897 5.000000000000918
    vertex 97.99999999999999 0.6666666666662668 5.000000000000342
    vertex 125.00000000000031 0.66666666666603 5.000000000000313
  endloop
endfacet
facet normal 2.1809088757282093e-15 5.976719264865029e-16 1.0
  outer loop
    vertex 4.999999999999833 20.166666666666316 5.000000000001246
    vertex 125.00000000000063 34.6666666666659 5.00000000000023
    vertex 4.999999999999968 34.66666666666696 5.00000000000036
  endloop
endfacet
facet normal 2.1809088757282093e-15 5.976719264865029e-16 1.0
  outer loop
    vertex 125.00000000000063 34.6666666666659 5.00000000000023
    vertex 4.999999999999833 20.166666666666316 5.000000000001246
    vertex 47.749999999999865 24.563157894733546 4.999999999999102
  endloop
endfacet
facet normal 2.1809088757282093e-15 5.976719264865029e-16 1.0
  outer loop
    vertex 47.749999999999865 24.563157894733546 4.999999999999102
    vertex 4.999999999999833 20.166666666666316 5.000000000001246
    vertex 47.74999999999972 7.16315789473389 4.999999999999732
  endloop
endfacet
facet normal 4.837741537039175e-16 6.062011162380544e-16 1.0
  outer loop
    vertex 5.000000000000668 49.26315789473292 4.765743355505946e-13
    vertex 32.0000000000005 55.66315789474075 9.940381850981338e-14
    vertex 5.000000000000735 55.663157894741 1.2830847495592935e-13
  endloop
endfacet
facet normal 4.837741537039175e-16 6.062011162380544e-16 1.0
  outer loop
    vertex 32.0000000000005 55.66315789474075 9.940381850981338e-14
    vertex 5.000000000000668 49.26315789473292 4.765743355505946e-13
    vertex 32.00000000000045 50.666666666662344 1.7942036745210999e-12
  endloop
endfacet
facet normal 4.837741537039175e-16 6.062011162380544e-16 1.0
  outer loop
    vertex 32.00000000000045 50.666666666662344 1.7942036745210999e-12
    vertex 5.000000000000668 49.26315789473292 4.765743355505946e-13
    vertex 76.00000000000044 50.66315789473233 1.7462642443177855e-12
  endloop
endfacet
facet normal 4.837741537039175e-16 6.062011162380544e-16 1.0
  outer loop
    vertex 76.00000000000044 50.66315789473233 1.7462642443177855e-12
    vertex 5.000000000000668 49.26315789473292 4.765743355505946e-13
    vertex 98.00000000000043 50.66315789473213 1.7222945292161284e-12
  endloop
endfacet
facet normal 4.837741537039175e-16 6.062011162380544e-16 1.0
  outer loop
    vertex 3.383959779057477e-13 34.66666666666702 3.3064107007874095e-13
    vertex 5.000000000000668 49.26315789473292 4.765743355505946e-13
    vertex 4.963141009284299e-13 49.26315789473297 4.822142685156905e-13
  endloop
endfacet
facet normal 4.837741537039175e-16 6.062011162380544e-16 1.0
  outer loop
    vertex 98.00000000000043 50.66315789473213 1.7222945292161284e-12
    vertex 125.00000000000036 55.66315789473992 -1.4099832412739487e-15
    vertex 98.0000000000005 55.66315789474017 2.7494673204842e-14
  endloop
endfacet
facet normal 4.837741537039175e-16 6.062011162380544e-16 1.0
  outer loop
    vertex 125.00000000000036 55.66315789473992 -1.4099832412739487e-15
    vertex 98.00000000000043 50.66315789473213 1.7222945292161284e-12
    vertex 125.00000000000031 50.666666666665975 4.300448885885544e-13
  endloop
endfacet
facet normal 4.837741537039175e-16 6.062011162380544e-16 1.0
  outer loop
    vertex 125.00000000000031 50.666666666665975 4.300448885885544e-13
    vertex 98.00000000000043 50.66315789473213 1.7222945292161284e-12
    vertex 130.00000000000048 50.66666666666593 4.2440495562345857e-13
  endloop
endfacet
facet normal 4.837741537039175e-16 6.062011162380544e-16 1.0
  outer loop
    vertex 130.00000000000048 50.66666666666593 4.2440495562345857e-13
    vertex 98.00000000000043 50.66315789473213 1.7222945292161284e-12
    vertex 130.0000000000003 34.66666666666586 1.903477375719831e-13
  endloop
endfacet
facet normal 4.837741537039175e-16 6.062011162380544e-16 1.0
  outer loop
    vertex 130.0000000000003 34.66666666666586 1.903477375719831e-13
    vertex 98.00000000000043 50.66315789473213 1.7222945292161284e-12
    vertex 5.000000000000668 49.26315789473292 4.765743355505946e-13
  endloop
endfacet
facet normal 4.837741537039175e-16 6.062011162380544e-16 1.0
  outer loop
    vertex 130.0000000000003 34.66666666666586 1.903477375719831e-13
    vertex 5.000000000000668 49.26315789473292 4.765743355505946e-13
    vertex 3.383959779057477e-13 34.66666666666702 3.3064107007874095e-13
  endloop
endfacet
facet normal 4.837741537039175e-16 6.062011162380544e-16 1.0
  outer loop
    vertex 130.0000000000003 34.66666666666586 1.903477375719831e-13
    vertex 3.383959779057477e-13 34.66666666666702 3.3064107007874095e-13
    vertex 5.000000000000013 34.66666666666698 3.250011371136452e-13
  endloop
endfacet
facet normal 4.837741537039175e-16 6.062011162380544e-16 1.0
  outer loop
    vertex 130.0000000000003 34.66666666666586 1.903477375719831e-13
    vertex 5.000000000000013 34.66666666666698 3.250011371136452e-13
    vertex 125.00000000000063 34.666666666665904 1.952826789164419e-13
  endloop
endfacet
facet normal 4.837741537039175e-16 6.062011162380544e-16 1.0
  outer loop
    vertex 54.00000000000044 50.666666666662216 1.7702339594194426e-12
    vertex 76.00000000000051 55.663157894740365 5.1464388306499126e-14
    vertex 54.00000000000049 55.66315789474057 7.543410340815625e-14
  endloop
endfacet
facet normal 4.837741537039175e-16 6.062011162380544e-16 1.0
  outer loop
    vertex 76.00000000000051 55.663157894740365 5.1464388306499126e-14
    vertex 54.00000000000044 50.666666666662216 1.7702339594194426e-12
    vertex 76.00000000000044 50.66315789473233 1.7462642443177855e-12
  endloop
endfacet
facet normal 4.837741537039175e-16 6.062011162380544e-16 1.0
  outer loop
    vertex 76.00000000000044 50.66315789473233 1.7462642443177855e-12
    vertex 54.00000000000044 50.666666666662216 1.7702339594194426e-12
    vertex 32.00000000000045 50.666666666662344 1.7942036745210999e-12
  endloop
endfacet
facet normal 4.837741537039175e-16 6.062011162380544e-16 1.0
  outer loop
    vertex 125.00000000000063 34.666666666665904 1.952826789164419e-13
    vertex 105.00000000000021 22.263157894732093 1.9493018310612342e-12
    vertex 125.00000000000047 20.16666666666594 5.851430451286888e-13
  endloop
endfacet
facet normal 4.837741537039175e-16 6.062011162380544e-16 1.0
  outer loop
    vertex 105.00000000000021 22.263157894732093 1.9493018310612342e-12
    vertex 125.00000000000063 34.666666666665904 1.952826789164419e-13
    vertex 61.249999999999936 24.563157894733408 3.6095570976613087e-13
  endloop
endfacet
facet normal 4.837741537039175e-16 6.062011162380544e-16 1.0
  outer loop
    vertex 61.249999999999936 24.563157894733408 3.6095570976613087e-13
    vertex 125.00000000000063 34.666666666665904 1.952826789164419e-13
    vertex 47.74999999999986 24.563157894733532 1.9098223003055634e-12
  endloop
endfacet
facet normal 4.837741537039175e-16 6.062011162380544e-16 1.0
  outer loop
    vertex 105.00000000000021 22.263157894732093 1.9493018310612342e-12
    vertex 61.249999999999936 24.563157894733408 3.6095570976613087e-13
    vertex 77.99999999999945 22.26315789473238 1.9789114791279872e-12
  endloop
endfacet
facet normal 4.837741537039175e-16 6.062011162380544e-16 1.0
  outer loop
    vertex 125.00000000000047 20.16666666666594 5.851430451286888e-13
    vertex 105.00000000000021 22.263157894732093 1.9493018310612342e-12
    vertex 104.99999999999991 9.463157894732126 1.5636714145728091e-12
  endloop
endfacet
facet normal 4.837741537039175e-16 6.062011162380544e-16 1.0
  outer loop
    vertex 61.24999999999938 7.163157894733484 1.1716960734986513e-12
    vertex 77.99999999999945 22.26315789473238 1.9789114791279872e-12
    vertex 61.249999999999936 24.563157894733408 3.6095570976613087e-13
  endloop
endfacet
facet normal 4.837741537039175e-16 6.062011162380544e-16 1.0
  outer loop
    vertex 77.99999999999945 22.26315789473238 1.9789114791279872e-12
    vertex 61.24999999999938 7.163157894733484 1.1716960734986513e-12
    vertex 77.9999999999996 9.463157894733062 6.901867966035979e-13
  endloop
endfacet
facet normal 4.837741537039175e-16 6.062011162380544e-16 1.0
  outer loop
    vertex 77.9999999999996 9.463157894733062 6.901867966035979e-13
    vertex 61.24999999999938 7.163157894733484 1.1716960734986513e-12
    vertex 104.99999999999991 9.463157894732126 1.5636714145728091e-12
  endloop
endfacet
facet normal 4.837741537039175e-16 6.062011162380544e-16 1.0
  outer loop
    vertex 2.255973186038318e-14 5.666666666667115 7.938205648372331e-13
    vertex 4.999999999999833 20.166666666666384 9.855782856504901e-13
    vertex 1.127986593019159e-13 20.16666666666643 6.302625088494551e-13
  endloop
endfacet
facet normal 4.837741537039175e-16 6.062011162380544e-16 1.0
  outer loop
    vertex 4.999999999999833 20.166666666666384 9.855782856504901e-13
    vertex 2.255973186038318e-14 5.666666666667115 7.938205648372331e-13
    vertex 47.74999999999971 7.163157894733844 1.1857959059113908e-12
  endloop
endfacet
facet normal 4.837741537039175e-16 6.062011162380544e-16 1.0
  outer loop
    vertex 47.74999999999971 7.163157894733844 1.1857959059113908e-12
    vertex 2.255973186038318e-14 5.666666666667115 7.938205648372331e-13
    vertex 61.24999999999938 7.163157894733484 1.1716960734986513e-12
  endloop
endfacet
facet normal 4.837741537039175e-16 6.062011162380544e-16 1.0
  outer loop
    vertex 61.24999999999938 7.163157894733484 1.1716960734986513e-12
    vertex 2.255973186038318e-14 5.666666666667115 7.938205648372331e-13
    vertex 31.999999999999954 5.666666666666946 2.2933377419320777e-12
  endloop
endfacet
facet normal 4.837741537039175e-16 6.062011162380544e-16 1.0
  outer loop
    vertex 31.999999999999954 5.666666666666946 2.2933377419320777e-12
    vertex 2.255973186038318e-14 5.666666666667115 7.938205648372331e-13
    vertex 4.99999999999875 5.66666666666707 7.888856234927743e-13
  endloop
endfacet
facet normal 4.837741537039175e-16 6.062011162380544e-16 1.0
  outer loop
    vertex 31.999999999999954 5.666666666666946 2.2933377419320777e-12
    vertex 4.99999999999875 5.66666666666707 7.888856234927743e-13
    vertex 31.999999999999996 0.6666666666670903 4.236999640028216e-13
  endloop
endfacet
facet normal 4.837741537039175e-16 6.062011162380544e-16 1.0
  outer loop
    vertex 31.999999999999996 0.6666666666670903 4.236999640028216e-13
    vertex 4.99999999999875 5.66666666666707 7.888856234927743e-13
    vertex 4.999999999998705 0.6666666666672595 4.533096120695745e-13
  endloop
endfacet
facet normal 4.837741537039175e-16 6.062011162380544e-16 1.0
  outer loop
    vertex 53.99999999999999 0.6666666666668196 4.0043524052180143e-13
    vertex 76.00000000000004 5.6666666666664725 2.2461033033494003e-12
    vertex 54.000000000000036 5.666666666666675 2.2693680268304204e-12
  endloop
endfacet
facet normal 4.837741537039175e-16 6.062011162380544e-16 1.0
  outer loop
    vertex 76.00000000000004 5.6666666666664725 2.2461033033494003e-12
    vertex 53.99999999999999 0.6666666666668196 4.0043524052180143e-13
    vertex 75.99999999999997 0.6666666666666279 3.764655254201443e-13
  endloop
endfacet
facet normal 4.837741537039175e-16 6.062011162380544e-16 1.0
  outer loop
    vertex 97.99999999999997 0.6666666666663007 3.524958103184872e-13
    vertex 125.00000000000036 5.666666666665964 8.389400285579995e-13
    vertex 98.00000000000003 5.666666666666235 2.222133588247743e-12
  endloop
endfacet
facet normal 4.837741537039175e-16 6.062011162380544e-16 1.0
  outer loop
    vertex 125.00000000000036 5.666666666665964 8.389400285579995e-13
    vertex 97.99999999999997 0.6666666666663007 3.524958103184872e-13
    vertex 125.00000000000031 0.6666666666660639 3.235911538723712e-13
  endloop
endfacet
facet normal 4.837741537039175e-16 6.062011162380544e-16 1.0
  outer loop
    vertex 125.00000000000047 20.16666666666594 5.851430451286888e-13
    vertex 130.00000000000009 5.666666666665919 8.340050872135406e-13
    vertex 130.0000000000002 20.166666666665925 5.795031121635929e-13
  endloop
endfacet
facet normal 4.837741537039175e-16 6.062011162380544e-16 1.0
  outer loop
    vertex 130.00000000000009 5.666666666665919 8.340050872135406e-13
    vertex 125.00000000000047 20.16666666666594 5.851430451286888e-13
    vertex 104.99999999999991 9.463157894732126 1.5636714145728091e-12
  endloop
endfacet
facet normal 4.837741537039175e-16 6.062011162380544e-16 1.0
  outer loop
    vertex 130.00000000000009 5.666666666665919 8.340050872135406e-13
    vertex 104.99999999999991 9.463157894732126 1.5636714145728091e-12
    vertex 61.24999999999938 7.163157894733484 1.1716960734986513e-12
  endloop
endfacet
facet normal 4.837741537039175e-16 6.062011162380544e-16 1.0
  outer loop
    vertex 130.00000000000009 5.666666666665919 8.340050872135406e-13
    vertex 61.24999999999938 7.163157894733484 1.1716960734986513e-12
    vertex 31.999999999999954 5.666666666666946 2.2933377419320777e-12
  endloop
endfacet
facet normal 4.837741537039175e-16 6.062011162380544e-16 1.0
  outer loop
    vertex 130.00000000000009 5.666666666665919 8.340050872135406e-13
    vertex 31.999999999999954 5.666666666666946 2.2933377419320777e-12
    vertex 76.00000000000004 5.6666666666664725 2.2461033033494003e-12
  endloop
endfacet
facet normal 4.837741537039175e-16 6.062011162380544e-16 1.0
  outer loop
    vertex 76.00000000000004 5.6666666666664725 2.2461033033494003e-12
    vertex 31.999999999999954 5.666666666666946 2.2933377419320777e-12
    vertex 54.000000000000036 5.666666666666675 2.2693680268304204e-12
  endloop
endfacet
facet normal 4.837741537039175e-16 6.062011162380544e-16 1.0
  outer loop
    vertex 130.00000000000009 5.666666666665919 8.340050872135406e-13
    vertex 76.00000000000004 5.6666666666664725 2.2461033033494003e-12
    vertex 98.00000000000003 5.666666666666235 2.222133588247743e-12
  endloop
endfacet
facet normal 4.837741537039175e-16 6.062011162380544e-16 1.0
  outer loop
    vertex 130.00000000000009 5.666666666665919 8.340050872135406e-13
    vertex 98.00000000000003 5.666666666666235 2.222133588247743e-12
    vertex 125.00000000000036 5.666666666665964 8.389400285579995e-13
  endloop
endfacet
facet normal 4.837741537039175e-16 6.062011162380544e-16 1.0
  outer loop
    vertex 4.999999999999833 20.166666666666384 9.855782856504901e-13
    vertex 125.00000000000063 34.666666666665904 1.952826789164419e-13
    vertex 5.000000000000013 34.66666666666698 3.250011371136452e-13
  endloop
endfacet
facet normal 4.837741537039175e-16 6.062011162380544e-16 1.0
  outer loop
    vertex 125.00000000000063 34.666666666665904 1.952826789164419e-13
    vertex 4.999999999999833 20.166666666666384 9.855782856504901e-13
    vertex 47.74999999999986 24.563157894733532 1.9098223003055634e-12
  endloop
endfacet
facet normal 4.837741537039175e-16 6.062011162380544e-16 1.0
  outer loop
    vertex 47.74999999999986 24.563157894733532 1.9098223003055634e-12
    vertex 4.999999999999833 20.166666666666384 9.855782856504901e-13
    vertex 47.74999999999971 7.163157894733844 1.1857959059113908e-12
  endloop
endfacet
endsolid pared 2
