solid pared 4
facet normal 1.0 1.5426700377709228e-14 8.049058336881594e-15
  outer loop
    vertex 180.00000000000273 5.6666666666679495 1.7307544286637722e-12
    vertex 180.00000000000273 0.6666666666681507 5.000000000001612
    vertex 180.00000000000279 0.6666666666681844 1.5989209956046579e-12
  endloop
endfacet
facet normal 1.0 1.5426700377709228e-14 8.049058336881594e-15
  outer loop
    vertex 180.00000000000273 0.6666666666681507 5.000000000001612
    vertex 180.00000000000273 5.6666666666679495 1.7307544286637722e-12
    vertex 180.0000000000027 5.666666666667973 5.0000000000016085
  endloop
endfacet
facet normal 1.0 5.810118625552359e-15 2.27318348800525e-14
  outer loop
    vertex 175.00000000000034 50.66666666666362 1.9655166383358846e-12
    vertex 174.99999999999918 34.66666666666024 5.000000000001652
    vertex 174.99999999999923 34.66666666666022 1.6158407944999452e-12
  endloop
endfacet
facet normal 1.0 5.810118625552359e-15 2.27318348800525e-14
  outer loop
    vertex 174.99999999999918 34.66666666666024 5.000000000001652
    vertex 175.00000000000034 50.66666666666362 1.9655166383358846e-12
    vertex 174.99999999999974 50.66666666666358 5.000000000001821
  endloop
endfacet
facet normal 4.198245958633775e-14 -1.0 7.045646117816832e-16
  outer loop
    vertex 4.999999999999603 5.666666666666202 2.114974861910923e-15
    vertex 2.312372515689276e-12 5.666666666666269 4.999999999999853
    vertex 2.334227255929022e-12 5.666666666666224 -2.114974861910923e-15
  endloop
endfacet
facet normal 4.198245958633775e-14 -1.0 7.045646117816832e-16
  outer loop
    vertex 2.312372515689276e-12 5.666666666666269 4.999999999999853
    vertex 4.999999999999603 5.666666666666202 2.114974861910923e-15
    vertex 4.999999999999554 5.666666666666247 4.999999999999947
  endloop
endfacet
facet normal 1.6992737430742286e-14 -1.0 -7.104573339890181e-15
  outer loop
    vertex 180.0000000000005 55.66315789474209 2.146699484839587e-12
    vertex 135.60000000000088 55.66315789474165 5.000000000001294
    vertex 135.60000000000093 55.66315789474165 1.3021195233164916e-12
  endloop
endfacet
facet normal 1.6992737430742286e-14 -1.0 -7.104573339890181e-15
  outer loop
    vertex 135.60000000000088 55.66315789474165 5.000000000001294
    vertex 180.0000000000005 55.66315789474209 2.146699484839587e-12
    vertex 180.00000000000045 55.66315789474209 5.000000000002048
  endloop
endfacet
facet normal 1.580516125603265e-14 1.0 -7.045646117811895e-16
  outer loop
    vertex 180.0000000000027 5.666666666667973 5.0000000000016085
    vertex 175.0000000000005 5.6666666666679495 1.6137258196380344e-12
    vertex 175.00000000000045 5.666666666667973 5.0000000000015365
  endloop
endfacet
facet normal 1.580516125603265e-14 1.0 -7.045646117811895e-16
  outer loop
    vertex 175.0000000000005 5.6666666666679495 1.6137258196380344e-12
    vertex 180.0000000000027 5.666666666667973 5.0000000000016085
    vertex 180.00000000000273 5.6666666666679495 1.7307544286637722e-12
  endloop
endfacet
facet normal 1.2357317198249845e-14 -1.0 7.045646117814249e-16
  outer loop
    vertex 135.47666666666893 5.666666666667679 1.155481266224001e-12
    vertex 103.53333333333578 5.6666666666673855 5.00000000000101
    vertex 103.53333333333582 5.666666666667363 1.0659473304031052e-12
  endloop
endfacet
facet normal 1.2357317198249845e-14 -1.0 7.045646117814249e-16
  outer loop
    vertex 103.53333333333578 5.6666666666673855 5.00000000000101
    vertex 135.47666666666893 5.666666666667679 1.155481266224001e-12
    vertex 135.4766666666689 5.666666666667702 5.0000000000011005
  endloop
endfacet
facet normal 1.0 9.530107205363761e-15 1.1361334526755178e-14
  outer loop
    vertex 4.999999999999716 50.666666666665755 8.318901123516297e-14
    vertex 4.99999999999974 34.66666666666049 5.000000000000018
    vertex 4.9999999999997895 34.66666666666055 4.934941344458821e-14
  endloop
endfacet
facet normal 1.0 9.530107205363761e-15 1.1361334526755178e-14
  outer loop
    vertex 4.99999999999974 34.66666666666049 5.000000000000018
    vertex 4.999999999999716 50.666666666665755 8.318901123516297e-14
    vertex 4.999999999999667 50.666666666665705 5.000000000000006
  endloop
endfacet
facet normal 1.0 9.013931380354569e-15 1.0619780155887933e-14
  outer loop
    vertex 1.6017409620872057e-12 34.66666666666043 6.767919558114953e-14
    vertex 1.6955048476319234e-12 20.16666666666579 4.999999999999956
    vertex 1.7448542610765116e-12 20.166666666665897 3.242961454930082e-14
  endloop
endfacet
facet normal 1.0 9.013931380354569e-15 1.0619780155887933e-14
  outer loop
    vertex 1.6955048476319234e-12 20.16666666666579 4.999999999999956
    vertex 1.6017409620872057e-12 34.66666666666043 6.767919558114953e-14
    vertex 1.5523915486426175e-12 34.666666666660454 4.999999999999946
  endloop
endfacet
facet normal -1.3754057429838402e-14 -1.0 -1.100914231572631e-14
  outer loop
    vertex 39.399999999999686 55.66666666666227 4.4202974613938293e-13
    vertex 9.86988268891764e-15 55.66666666666202 4.999999999999998
    vertex 5.921929613350585e-14 55.66666666666202 7.754907827006718e-15
  endloop
endfacet
facet normal -1.3754057429838402e-14 -1.0 -1.100914231572631e-14
  outer loop
    vertex 9.86988268891764e-15 55.66666666666202 4.999999999999998
    vertex 39.399999999999686 55.66666666666227 4.4202974613938293e-13
    vertex 39.399999999999636 55.66666666666229 5.000000000000387
  endloop
endfacet
facet normal 8.001362885866787e-14 1.0 -7.04564611780508e-16
  outer loop
    vertex 180.00000000000227 34.66666666666031 5.000000000001611
    vertex 174.99999999999923 34.66666666666022 1.6158407944999452e-12
    vertex 174.99999999999918 34.66666666666024 5.000000000001652
  endloop
endfacet
facet normal 8.001362885866787e-14 1.0 -7.04564611780508e-16
  outer loop
    vertex 174.99999999999923 34.66666666666022 1.6158407944999452e-12
    vertex 180.00000000000227 34.66666666666031 5.000000000001611
    vertex 180.00000000000233 34.6666666666603 1.5749512805030008e-12
  endloop
endfacet
facet normal 1.0 8.054787934450345e-15 9.878225785020742e-15
  outer loop
    vertex 4.999999999999933 20.166666666665876 3.665956427312267e-14
    vertex 4.999999999999554 5.666666666666247 4.999999999999947
    vertex 4.999999999999603 5.666666666666202 2.114974861910923e-15
  endloop
endfacet
facet normal 1.0 8.054787934450345e-15 9.878225785020742e-15
  outer loop
    vertex 4.999999999999554 5.666666666666247 4.999999999999947
    vertex 4.999999999999933 20.166666666665876 3.665956427312267e-14
    vertex 4.999999999999884 20.166666666665876 5.000000000000095
  endloop
endfacet
facet normal 1.0 1.3346022405450976e-14 9.192287991968514e-15
  outer loop
    vertex 2.312372515689276e-12 5.666666666666269 4.999999999999853
    vertex 2.4385660157832942e-12 0.6666666666664812 1.4099832412739487e-15
    vertex 2.334227255929022e-12 5.666666666666224 -2.114974861910923e-15
  endloop
endfacet
facet normal 1.0 1.3346022405450976e-14 9.192287991968514e-15
  outer loop
    vertex 2.4385660157832942e-12 0.6666666666664812 1.4099832412739487e-15
    vertex 2.312372515689276e-12 5.666666666666269 4.999999999999853
    vertex 2.389216602338706e-12 0.6666666666665151 4.999999999999857
  endloop
endfacet
facet normal 1.0 9.573364543664209e-15 8.049058336881551e-15
  outer loop
    vertex 175.00000000000037 20.166666666667624 5.000000000001571
    vertex 175.0000000000005 5.6666666666679495 1.6137258196380344e-12
    vertex 175.00000000000037 20.16666666666763 1.5805912134680965e-12
  endloop
endfacet
facet normal 1.0 9.573364543664209e-15 8.049058336881551e-15
  outer loop
    vertex 175.0000000000005 5.6666666666679495 1.6137258196380344e-12
    vertex 175.00000000000037 20.166666666667624 5.000000000001571
    vertex 175.00000000000045 5.666666666667973 5.0000000000015365
  endloop
endfacet
facet normal 3.346248984675629e-14 1.0 2.1421326251288404e-14
  outer loop
    vertex 4.999999999999884 20.166666666665876 5.000000000000095
    vertex 1.7448542610765116e-12 20.166666666665897 3.242961454930082e-14
    vertex 1.6955048476319234e-12 20.16666666666579 4.999999999999956
  endloop
endfacet
facet normal 3.346248984675629e-14 1.0 2.1421326251288404e-14
  outer loop
    vertex 1.7448542610765116e-12 20.166666666665897 3.242961454930082e-14
    vertex 4.999999999999884 20.166666666665876 5.000000000000095
    vertex 4.999999999999933 20.166666666665876 3.665956427312267e-14
  endloop
endfacet
facet normal -1.0 -1.0670865012547618e-14 -1.1707393233159893e-14
  outer loop
    vertex 135.47666666666893 0.6666666666677107 5.000000000001105
    vertex 135.47666666666893 5.666666666667679 1.155481266224001e-12
    vertex 135.476666666669 0.6666666666676995 1.0687672968856532e-12
  endloop
endfacet
facet normal -1.0 -1.0670865012547618e-14 -1.1707393233159893e-14
  outer loop
    vertex 135.47666666666893 5.666666666667679 1.155481266224001e-12
    vertex 135.47666666666893 0.6666666666677107 5.000000000001105
    vertex 135.4766666666689 5.666666666667702 5.0000000000011005
  endloop
endfacet
facet normal 1.3435481607881413e-14 -1.0 -9.707619323780695e-15
  outer loop
    vertex 180.00000000000279 0.6666666666681844 1.5989209956046579e-12
    vertex 135.47666666666893 0.6666666666677107 5.000000000001105
    vertex 135.476666666669 0.6666666666676995 1.0687672968856532e-12
  endloop
endfacet
facet normal 1.3435481607881413e-14 -1.0 -9.707619323780695e-15
  outer loop
    vertex 135.47666666666893 0.6666666666677107 5.000000000001105
    vertex 180.00000000000279 0.6666666666681844 1.5989209956046579e-12
    vertex 180.00000000000273 0.6666666666681507 5.000000000001612
  endloop
endfacet
facet normal 1.6120715690832318e-14 -1.0 3.307610595671997e-15
  outer loop
    vertex 39.40000000000181 0.6666666666667519 3.4544589411211746e-13
    vertex 2.389216602338706e-12 0.6666666666665151 4.999999999999857
    vertex 2.4385660157832942e-12 0.6666666666664812 1.4099832412739487e-15
  endloop
endfacet
facet normal 1.6120715690832318e-14 -1.0 3.307610595671997e-15
  outer loop
    vertex 2.389216602338706e-12 0.6666666666665151 4.999999999999857
    vertex 39.40000000000181 0.6666666666667519 3.4544589411211746e-13
    vertex 39.400000000001846 0.6666666666667632 5.000000000000291
  endloop
endfacet
facet normal 1.0 1.2454303274483186e-14 9.42093392298594e-15
  outer loop
    vertex 39.40000000000166 5.666666666666754 5.000000000000287
    vertex 39.40000000000181 0.6666666666667519 3.4544589411211746e-13
    vertex 39.40000000000171 5.666666666666732 3.419209360089326e-13
  endloop
endfacet
facet normal 1.0 1.2454303274483186e-14 9.42093392298594e-15
  outer loop
    vertex 39.40000000000181 0.6666666666667519 3.4544589411211746e-13
    vertex 39.40000000000166 5.666666666666754 5.000000000000287
    vertex 39.400000000001846 0.6666666666667632 5.000000000000291
  endloop
endfacet
facet normal 1.0 -4.260841728306443e-16 7.323885443249218e-16
  outer loop
    vertex 71.4666666666689 55.666666666662515 5.78093128922319e-13
    vertex 71.46666666666873 50.66666666666281 5.000000000000551
    vertex 71.46666666666856 50.66666666666281 5.364986233047375e-13
  endloop
endfacet
facet normal 1.0 -4.260841728306443e-16 7.323885443249218e-16
  outer loop
    vertex 71.46666666666873 50.66666666666281 5.000000000000551
    vertex 71.4666666666689 55.666666666662515 5.78093128922319e-13
    vertex 71.46666666666884 55.666666666662536 5.0000000000005915
  endloop
endfacet
facet normal -1.0 -1.4435901343300704e-14 -9.420933922985985e-15
  outer loop
    vertex 39.39999999999991 50.666666666662444 5.000000000000392
    vertex 39.399999999999686 55.66666666666227 4.4202974613938293e-13
    vertex 39.39999999999996 50.66666666666245 4.455547042425678e-13
  endloop
endfacet
facet normal -1.0 -1.4435901343300704e-14 -9.420933922985985e-15
  outer loop
    vertex 39.399999999999686 55.66666666666227 4.4202974613938293e-13
    vertex 39.39999999999991 50.666666666662444 5.000000000000392
    vertex 39.399999999999636 55.66666666666229 5.000000000000387
  endloop
endfacet
facet normal 1.0 9.283746364375526e-15 9.420933922985928e-15
  outer loop
    vertex 9.86988268891764e-15 55.66666666666202 4.999999999999998
    vertex 1.3606338278293605e-13 50.66666666666567 5.639932965095795e-14
    vertex 5.921929613350585e-14 55.66666666666202 7.754907827006718e-15
  endloop
endfacet
facet normal 1.0 9.283746364375526e-15 9.420933922985928e-15
  outer loop
    vertex 1.3606338278293605e-13 50.66666666666567 5.639932965095795e-14
    vertex 9.86988268891764e-15 55.66666666666202 4.999999999999998
    vertex 8.671396933834785e-14 50.66666666666563 4.99999999999998
  endloop
endfacet
facet normal 9.569531229238847e-15 -1.0 -6.453811843917603e-15
  outer loop
    vertex 71.46666666666856 50.66666666666281 5.364986233047375e-13
    vertex 39.39999999999991 50.666666666662444 5.000000000000392
    vertex 39.39999999999996 50.66666666666245 4.455547042425678e-13
  endloop
endfacet
facet normal 9.569531229238847e-15 -1.0 -6.453811843917603e-15
  outer loop
    vertex 39.39999999999991 50.666666666662444 5.000000000000392
    vertex 71.46666666666856 50.66666666666281 5.364986233047375e-13
    vertex 71.46666666666873 50.66666666666281 5.000000000000551
  endloop
endfacet
facet normal 1.0 8.914214853777917e-14 9.878225785021649e-15
  outer loop
    vertex 135.60000000000088 55.66315789474165 5.000000000001294
    vertex 135.6000000000037 50.66666666666807 1.3056444814196765e-12
    vertex 135.60000000000093 55.66315789474165 1.3021195233164916e-12
  endloop
endfacet
facet normal 1.0 8.914214853777917e-14 9.878225785021649e-15
  outer loop
    vertex 135.6000000000037 50.66666666666807 1.3056444814196765e-12
    vertex 135.60000000000088 55.66315789474165 5.000000000001294
    vertex 135.60000000000366 50.66666666666799 5.000000000001251
  endloop
endfacet
facet normal -1.4817338677530893e-14 -1.0 7.045646117813564e-16
  outer loop
    vertex 103.53333333333532 55.666666666662756 1.0306977493712565e-12
    vertex 71.46666666666884 55.666666666662536 5.0000000000005915
    vertex 71.4666666666689 55.666666666662515 5.78093128922319e-13
  endloop
endfacet
facet normal -1.4817338677530893e-14 -1.0 7.045646117813564e-16
  outer loop
    vertex 71.46666666666884 55.666666666662536 5.0000000000005915
    vertex 103.53333333333532 55.666666666662756 1.0306977493712565e-12
    vertex 103.53333333333539 55.666666666662756 5.000000000000908
  endloop
endfacet
facet normal 5.788297051210711e-13 -1.0 -1.621523428350158e-14
  outer loop
    vertex 135.6000000000037 50.66666666666807 1.3056444814196765e-12
    vertex 103.53333333333627 50.66666666666544 5.000000000000911
    vertex 103.53333333333632 50.66666666666548 9.439837800329087e-13
  endloop
endfacet
facet normal 5.788297051210711e-13 -1.0 -1.621523428350158e-14
  outer loop
    vertex 103.53333333333627 50.66666666666544 5.000000000000911
    vertex 135.6000000000037 50.66666666666807 1.3056444814196765e-12
    vertex 135.60000000000366 50.66666666666799 5.000000000001251
  endloop
endfacet
facet normal -9.878225785020803e-15 1.0 8.406096331835548e-15
  outer loop
    vertex 4.999999999999667 50.666666666665705 5.000000000000006
    vertex 1.3606338278293605e-13 50.66666666666567 5.639932965095795e-14
    vertex 8.671396933834785e-14 50.66666666666563 4.99999999999998
  endloop
endfacet
facet normal -9.878225785020803e-15 1.0 8.406096331835548e-15
  outer loop
    vertex 1.3606338278293605e-13 50.66666666666567 5.639932965095795e-14
    vertex 4.999999999999667 50.666666666665705 5.000000000000006
    vertex 4.999999999999716 50.666666666665755 8.318901123516297e-14
  endloop
endfacet
facet normal -1.0 -2.96942064732027e-14 -8.049058336881762e-15
  outer loop
    vertex 103.53333333333627 50.66666666666544 5.000000000000911
    vertex 103.53333333333532 55.666666666662756 1.0306977493712565e-12
    vertex 103.53333333333632 50.66666666666548 9.439837800329087e-13
  endloop
endfacet
facet normal -1.0 -2.96942064732027e-14 -8.049058336881762e-15
  outer loop
    vertex 103.53333333333532 55.666666666662756 1.0306977493712565e-12
    vertex 103.53333333333627 50.66666666666544 5.000000000000911
    vertex 103.53333333333539 55.666666666662756 5.000000000000908
  endloop
endfacet
facet normal 6.365281740223509e-14 -1.0 -1.6865995779477064e-14
  outer loop
    vertex 175.00000000000034 50.66666666666362 1.9655166383358846e-12
    vertex 180.00000000000034 50.66666666666392 5.0000000000020055
    vertex 174.99999999999974 50.66666666666358 5.000000000001821
  endloop
endfacet
facet normal 6.365281740223509e-14 -1.0 -1.6865995779477064e-14
  outer loop
    vertex 180.00000000000034 50.66666666666392 5.0000000000020055
    vertex 175.00000000000034 50.66666666666362 1.9655166383358846e-12
    vertex 180.0000000000012 50.66666666666391 2.150224442942772e-12
  endloop
endfacet
facet normal 1.0 8.658780819594669e-15 9.878225785020728e-15
  outer loop
    vertex 180.00000000000227 34.66666666666031 5.000000000001611
    vertex 180.00000000000261 20.166666666667716 1.6299406269126847e-12
    vertex 180.00000000000233 34.6666666666603 1.5749512805030008e-12
  endloop
endfacet
facet normal 1.0 8.658780819594669e-15 9.878225785020728e-15
  outer loop
    vertex 180.00000000000261 20.166666666667716 1.6299406269126847e-12
    vertex 180.00000000000227 34.66666666666031 5.000000000001611
    vertex 180.00000000000256 20.166666666667673 5.000000000001598
  endloop
endfacet
facet normal 9.878225785020766e-15 -1.0 -4.501527355999691e-15
  outer loop
    vertex 180.00000000000261 20.166666666667716 1.6299406269126847e-12
    vertex 175.00000000000037 20.166666666667624 5.000000000001571
    vertex 175.00000000000037 20.16666666666763 1.5805912134680965e-12
  endloop
endfacet
facet normal 9.878225785020766e-15 -1.0 -4.501527355999691e-15
  outer loop
    vertex 175.00000000000037 20.166666666667624 5.000000000001571
    vertex 180.00000000000261 20.166666666667716 1.6299406269126847e-12
    vertex 180.00000000000256 20.166666666667673 5.000000000001598
  endloop
endfacet
facet normal 1.0 1.3841421922655267e-14 3.3657402610830056e-14
  outer loop
    vertex 180.00000000000045 55.66315789474209 5.000000000002048
    vertex 180.0000000000012 50.66666666666391 2.150224442942772e-12
    vertex 180.0000000000005 55.66315789474209 2.146699484839587e-12
  endloop
endfacet
facet normal 1.0 1.3841421922655267e-14 3.3657402610830056e-14
  outer loop
    vertex 180.0000000000012 50.66666666666391 2.150224442942772e-12
    vertex 180.00000000000045 55.66315789474209 5.000000000002048
    vertex 180.00000000000034 50.66666666666392 5.0000000000020055
  endloop
endfacet
facet normal 1.0 1.159194282224635e-15 1.1707393233159934e-14
  outer loop
    vertex 103.53333333333582 5.666666666667363 1.0659473304031052e-12
    vertex 103.53333333333532 0.6666666666674287 5.000000000000969
    vertex 103.53333333333559 0.6666666666674287 9.792333610647574e-13
  endloop
endfacet
facet normal 1.0 1.159194282224635e-15 1.1707393233159934e-14
  outer loop
    vertex 103.53333333333532 0.6666666666674287 5.000000000000969
    vertex 103.53333333333582 5.666666666667363 1.0659473304031052e-12
    vertex 103.53333333333578 5.6666666666673855 5.00000000000101
  endloop
endfacet
facet normal 2.4695564462553933e-15 -1.0 -4.501527355999773e-15
  outer loop
    vertex 71.46666666666877 5.666666666667047 7.487011011164668e-13
    vertex 39.40000000000166 5.666666666666754 5.000000000000287
    vertex 39.40000000000171 5.666666666666732 3.419209360089326e-13
  endloop
endfacet
facet normal 2.4695564462553933e-15 -1.0 -4.501527355999773e-15
  outer loop
    vertex 39.40000000000166 5.666666666666754 5.000000000000287
    vertex 71.46666666666877 5.666666666667047 7.487011011164668e-13
    vertex 71.46666666666871 5.6666666666670364 5.000000000000649
  endloop
endfacet
facet normal 3.704334669382804e-15 -1.0 3.307610595671868e-15
  outer loop
    vertex 103.53333333333559 0.6666666666674287 9.792333610647574e-13
    vertex 71.46666666666877 0.6666666666671242 5.000000000000608
    vertex 71.46666666666883 0.6666666666671128 6.619871317781189e-13
  endloop
endfacet
facet normal 3.704334669382804e-15 -1.0 3.307610595671868e-15
  outer loop
    vertex 71.46666666666877 0.6666666666671242 5.000000000000608
    vertex 103.53333333333559 0.6666666666674287 9.792333610647574e-13
    vertex 103.53333333333532 0.6666666666674287 5.000000000000969
  endloop
endfacet
facet normal -1.0 -9.87822578502072e-15 -9.878225785020736e-15
  outer loop
    vertex 71.46666666666877 0.6666666666671242 5.000000000000608
    vertex 71.46666666666877 5.666666666667047 7.487011011164668e-13
    vertex 71.46666666666883 0.6666666666671128 6.619871317781189e-13
  endloop
endfacet
facet normal -1.0 -9.87822578502072e-15 -9.878225785020736e-15
  outer loop
    vertex 71.46666666666877 5.666666666667047 7.487011011164668e-13
    vertex 71.46666666666877 0.6666666666671242 5.000000000000608
    vertex 71.46666666666871 5.6666666666670364 5.000000000000649
  endloop
endfacet
facet normal 1.2965171342842216e-14 1.0 1.431300837220392e-14
  outer loop
    vertex 4.99999999999974 34.66666666666049 5.000000000000018
    vertex 1.6017409620872057e-12 34.66666666666043 6.767919558114953e-14
    vertex 1.5523915486426175e-12 34.666666666660454 4.999999999999946
  endloop
endfacet
facet normal 1.2965171342842216e-14 1.0 1.431300837220392e-14
  outer loop
    vertex 1.6017409620872057e-12 34.66666666666043 6.767919558114953e-14
    vertex 4.99999999999974 34.66666666666049 5.000000000000018
    vertex 4.9999999999997895 34.66666666666055 4.934941344458821e-14
  endloop
endfacet
facet normal 9.498500498016826e-15 5.59279585209296e-16 -1.0
  outer loop
    vertex 180.0000000000012 50.66666666666391 2.150224442942772e-12
    vertex 135.60000000000093 55.66315789474165 1.3021195233164916e-12
    vertex 180.0000000000005 55.66315789474209 2.146699484839587e-12
  endloop
endfacet
facet normal 9.498500498016826e-15 5.59279585209296e-16 -1.0
  outer loop
    vertex 135.60000000000093 55.66315789474165 1.3021195233164916e-12
    vertex 180.0000000000012 50.66666666666391 2.150224442942772e-12
    vertex 135.6000000000037 50.66666666666807 1.3056444814196765e-12
  endloop
endfacet
facet normal 9.498500498016826e-15 5.59279585209296e-16 -1.0
  outer loop
    vertex 135.6000000000037 50.66666666666807 1.3056444814196765e-12
    vertex 180.0000000000012 50.66666666666391 2.150224442942772e-12
    vertex 103.53333333333632 50.66666666666548 9.439837800329087e-13
  endloop
endfacet
facet normal 9.498500498016826e-15 5.59279585209296e-16 -1.0
  outer loop
    vertex 103.53333333333532 55.666666666662756 1.0306977493712565e-12
    vertex 71.46666666666856 50.66666666666281 5.364986233047375e-13
    vertex 71.4666666666689 55.666666666662515 5.78093128922319e-13
  endloop
endfacet
facet normal 9.498500498016826e-15 5.59279585209296e-16 -1.0
  outer loop
    vertex 71.46666666666856 50.66666666666281 5.364986233047375e-13
    vertex 103.53333333333532 55.666666666662756 1.0306977493712565e-12
    vertex 103.53333333333632 50.66666666666548 9.439837800329087e-13
  endloop
endfacet
facet normal 9.498500498016826e-15 5.59279585209296e-16 -1.0
  outer loop
    vertex 71.46666666666856 50.66666666666281 5.364986233047375e-13
    vertex 103.53333333333632 50.66666666666548 9.439837800329087e-13
    vertex 180.0000000000012 50.66666666666391 2.150224442942772e-12
  endloop
endfacet
facet normal 9.498500498016826e-15 5.59279585209296e-16 -1.0
  outer loop
    vertex 71.46666666666856 50.66666666666281 5.364986233047375e-13
    vertex 180.0000000000012 50.66666666666391 2.150224442942772e-12
    vertex 175.00000000000034 50.66666666666362 1.9655166383358846e-12
  endloop
endfacet
facet normal 9.498500498016826e-15 5.59279585209296e-16 -1.0
  outer loop
    vertex 71.46666666666856 50.66666666666281 5.364986233047375e-13
    vertex 175.00000000000034 50.66666666666362 1.9655166383358846e-12
    vertex 39.39999999999996 50.66666666666245 4.455547042425678e-13
  endloop
endfacet
facet normal 9.498500498016826e-15 5.59279585209296e-16 -1.0
  outer loop
    vertex 180.00000000000261 20.166666666667716 1.6299406269126847e-12
    vertex 174.99999999999923 34.66666666666022 1.6158407944999452e-12
    vertex 180.00000000000233 34.6666666666603 1.5749512805030008e-12
  endloop
endfacet
facet normal 9.498500498016826e-15 5.59279585209296e-16 -1.0
  outer loop
    vertex 39.399999999999686 55.66666666666227 4.4202974613938293e-13
    vertex 1.3606338278293605e-13 50.66666666666567 5.639932965095795e-14
    vertex 5.921929613350585e-14 55.66666666666202 7.754907827006718e-15
  endloop
endfacet
facet normal 9.498500498016826e-15 5.59279585209296e-16 -1.0
  outer loop
    vertex 1.3606338278293605e-13 50.66666666666567 5.639932965095795e-14
    vertex 39.399999999999686 55.66666666666227 4.4202974613938293e-13
    vertex 4.999999999999716 50.666666666665755 8.318901123516297e-14
  endloop
endfacet
facet normal 9.498500498016826e-15 5.59279585209296e-16 -1.0
  outer loop
    vertex 39.39999999999996 50.66666666666245 4.455547042425678e-13
    vertex 4.999999999999716 50.666666666665755 8.318901123516297e-14
    vertex 39.399999999999686 55.66666666666227 4.4202974613938293e-13
  endloop
endfacet
facet normal 9.498500498016826e-15 5.59279585209296e-16 -1.0
  outer loop
    vertex 4.999999999999716 50.666666666665755 8.318901123516297e-14
    vertex 39.39999999999996 50.66666666666245 4.455547042425678e-13
    vertex 4.9999999999997895 34.66666666666055 4.934941344458821e-14
  endloop
endfacet
facet normal 9.498500498016826e-15 5.59279585209296e-16 -1.0
  outer loop
    vertex 4.9999999999997895 34.66666666666055 4.934941344458821e-14
    vertex 39.39999999999996 50.66666666666245 4.455547042425678e-13
    vertex 175.00000000000034 50.66666666666362 1.9655166383358846e-12
  endloop
endfacet
facet normal 9.498500498016826e-15 5.59279585209296e-16 -1.0
  outer loop
    vertex 4.9999999999997895 34.66666666666055 4.934941344458821e-14
    vertex 175.00000000000034 50.66666666666362 1.9655166383358846e-12
    vertex 174.99999999999923 34.66666666666022 1.6158407944999452e-12
  endloop
endfacet
facet normal 9.498500498016826e-15 5.59279585209296e-16 -1.0
  outer loop
    vertex 4.9999999999997895 34.66666666666055 4.934941344458821e-14
    vertex 174.99999999999923 34.66666666666022 1.6158407944999452e-12
    vertex 1.6017409620872057e-12 34.66666666666043 6.767919558114953e-14
  endloop
endfacet
facet normal 9.498500498016826e-15 5.59279585209296e-16 -1.0
  outer loop
    vertex 1.6017409620872057e-12 34.66666666666043 6.767919558114953e-14
    vertex 174.99999999999923 34.66666666666022 1.6158407944999452e-12
    vertex 1.7448542610765116e-12 20.166666666665897 3.242961454930082e-14
  endloop
endfacet
facet normal 9.498500498016826e-15 5.59279585209296e-16 -1.0
  outer loop
    vertex 1.7448542610765116e-12 20.166666666665897 3.242961454930082e-14
    vertex 174.99999999999923 34.66666666666022 1.6158407944999452e-12
    vertex 180.00000000000261 20.166666666667716 1.6299406269126847e-12
  endloop
endfacet
facet normal 9.498500498016826e-15 5.59279585209296e-16 -1.0
  outer loop
    vertex 1.7448542610765116e-12 20.166666666665897 3.242961454930082e-14
    vertex 180.00000000000261 20.166666666667716 1.6299406269126847e-12
    vertex 175.00000000000037 20.16666666666763 1.5805912134680965e-12
  endloop
endfacet
facet normal 9.498500498016826e-15 5.59279585209296e-16 -1.0
  outer loop
    vertex 1.7448542610765116e-12 20.166666666665897 3.242961454930082e-14
    vertex 175.00000000000037 20.16666666666763 1.5805912134680965e-12
    vertex 4.999999999999933 20.166666666665876 3.665956427312267e-14
  endloop
endfacet
facet normal 9.498500498016826e-15 5.59279585209296e-16 -1.0
  outer loop
    vertex 4.999999999999933 20.166666666665876 3.665956427312267e-14
    vertex 175.00000000000037 20.16666666666763 1.5805912134680965e-12
    vertex 175.0000000000005 5.6666666666679495 1.6137258196380344e-12
  endloop
endfacet
facet normal 9.498500498016826e-15 5.59279585209296e-16 -1.0
  outer loop
    vertex 4.999999999999933 20.166666666665876 3.665956427312267e-14
    vertex 175.0000000000005 5.6666666666679495 1.6137258196380344e-12
    vertex 135.47666666666893 5.666666666667679 1.155481266224001e-12
  endloop
endfacet
facet normal 9.498500498016826e-15 5.59279585209296e-16 -1.0
  outer loop
    vertex 135.47666666666893 5.666666666667679 1.155481266224001e-12
    vertex 175.0000000000005 5.6666666666679495 1.6137258196380344e-12
    vertex 135.476666666669 0.6666666666676995 1.0687672968856532e-12
  endloop
endfacet
facet normal 9.498500498016826e-15 5.59279585209296e-16 -1.0
  outer loop
    vertex 135.476666666669 0.6666666666676995 1.0687672968856532e-12
    vertex 175.0000000000005 5.6666666666679495 1.6137258196380344e-12
    vertex 180.00000000000273 5.6666666666679495 1.7307544286637722e-12
  endloop
endfacet
facet normal 9.498500498016826e-15 5.59279585209296e-16 -1.0
  outer loop
    vertex 135.476666666669 0.6666666666676995 1.0687672968856532e-12
    vertex 180.00000000000273 5.6666666666679495 1.7307544286637722e-12
    vertex 180.00000000000279 0.6666666666681844 1.5989209956046579e-12
  endloop
endfacet
facet normal 9.498500498016826e-15 5.59279585209296e-16 -1.0
  outer loop
    vertex 103.53333333333559 0.6666666666674287 9.792333610647574e-13
    vertex 71.46666666666877 5.666666666667047 7.487011011164668e-13
    vertex 103.53333333333582 5.666666666667363 1.0659473304031052e-12
  endloop
endfacet
facet normal 9.498500498016826e-15 5.59279585209296e-16 -1.0
  outer loop
    vertex 71.46666666666877 5.666666666667047 7.487011011164668e-13
    vertex 103.53333333333559 0.6666666666674287 9.792333610647574e-13
    vertex 71.46666666666883 0.6666666666671128 6.619871317781189e-13
  endloop
endfacet
facet normal 9.498500498016826e-15 5.59279585209296e-16 -1.0
  outer loop
    vertex 4.999999999999933 20.166666666665876 3.665956427312267e-14
    vertex 39.40000000000171 5.666666666666732 3.419209360089326e-13
    vertex 4.999999999999603 5.666666666666202 2.114974861910923e-15
  endloop
endfacet
facet normal 9.498500498016826e-15 5.59279585209296e-16 -1.0
  outer loop
    vertex 39.40000000000171 5.666666666666732 3.419209360089326e-13
    vertex 4.999999999999933 20.166666666665876 3.665956427312267e-14
    vertex 135.47666666666893 5.666666666667679 1.155481266224001e-12
  endloop
endfacet
facet normal 9.498500498016826e-15 5.59279585209296e-16 -1.0
  outer loop
    vertex 39.40000000000171 5.666666666666732 3.419209360089326e-13
    vertex 135.47666666666893 5.666666666667679 1.155481266224001e-12
    vertex 103.53333333333582 5.666666666667363 1.0659473304031052e-12
  endloop
endfacet
facet normal 9.498500498016826e-15 5.59279585209296e-16 -1.0
  outer loop
    vertex 39.40000000000171 5.666666666666732 3.419209360089326e-13
    vertex 103.53333333333582 5.666666666667363 1.0659473304031052e-12
    vertex 71.46666666666877 5.666666666667047 7.487011011164668e-13
  endloop
endfacet
facet normal 9.498500498016826e-15 5.59279585209296e-16 -1.0
  outer loop
    vertex 4.999999999999603 5.666666666666202 2.114974861910923e-15
    vertex 39.40000000000171 5.666666666666732 3.419209360089326e-13
    vertex 39.40000000000181 0.6666666666667519 3.4544589411211746e-13
  endloop
endfacet
facet normal 9.498500498016826e-15 5.59279585209296e-16 -1.0
  outer loop
    vertex 4.999999999999603 5.666666666666202 2.114974861910923e-15
    vertex 39.40000000000181 0.6666666666667519 3.4544589411211746e-13
    vertex 2.4385660157832942e-12 0.6666666666664812 1.4099832412739487e-15
  endloop
endfacet
facet normal 9.498500498016826e-15 5.59279585209296e-16 -1.0
  outer loop
    vertex 2.4385660157832942e-12 0.6666666666664812 1.4099832412739487e-15
    vertex 2.334227255929022e-12 5.666666666666224 -2.114974861910923e-15
    vertex 4.999999999999603 5.666666666666202 2.114974861910923e-15
  endloop
endfacet
facet normal 9.668205007418583e-15 5.654223535394918e-16 -1.0
  outer loop
    vertex 180.00000000000034 50.66666666666392 5.0000000000020055
    vertex 135.60000000000088 55.66315789474165 5.000000000001294
    vertex 180.00000000000045 55.66315789474209 5.000000000002048
  endloop
endfacet
facet normal 9.668205007418583e-15 5.654223535394918e-16 -1.0
  outer loop
    vertex 135.60000000000088 55.66315789474165 5.000000000001294
    vertex 180.00000000000034 50.66666666666392 5.0000000000020055
    vertex 135.60000000000366 50.66666666666799 5.000000000001251
  endloop
endfacet
facet normal 9.668205007418583e-15 5.654223535394918e-16 -1.0
  outer loop
    vertex 135.60000000000366 50.66666666666799 5.000000000001251
    vertex 180.00000000000034 50.66666666666392 5.0000000000020055
    vertex 103.53333333333627 50.66666666666544 5.000000000000911
  endloop
endfacet
facet normal 9.668205007418583e-15 5.654223535394918e-16 -1.0
  outer loop
    vertex 103.53333333333539 55.666666666662756 5.000000000000908
    vertex 71.46666666666873 50.66666666666281 5.000000000000551
    vertex 71.46666666666884 55.666666666662536 5.0000000000005915
  endloop
endfacet
facet normal 9.668205007418583e-15 5.654223535394918e-16 -1.0
  outer loop
    vertex 71.46666666666873 50.66666666666281 5.000000000000551
    vertex 103.53333333333539 55.666666666662756 5.000000000000908
    vertex 103.53333333333627 50.66666666666544 5.000000000000911
  endloop
endfacet
facet normal 9.668205007418583e-15 5.654223535394918e-16 -1.0
  outer loop
    vertex 71.46666666666873 50.66666666666281 5.000000000000551
    vertex 103.53333333333627 50.66666666666544 5.000000000000911
    vertex 180.00000000000034 50.66666666666392 5.0000000000020055
  endloop
endfacet
facet normal 9.668205007418583e-15 5.654223535394918e-16 -1.0
  outer loop
    vertex 71.46666666666873 50.66666666666281 5.000000000000551
    vertex 180.00000000000034 50.66666666666392 5.0000000000020055
    vertex 174.99999999999974 50.66666666666358 5.000000000001821
  endloop
endfacet
facet normal 9.668205007418583e-15 5.654223535394918e-16 -1.0
  outer loop
    vertex 71.46666666666873 50.66666666666281 5.000000000000551
    vertex 174.99999999999974 50.66666666666358 5.000000000001821
    vertex 39.39999999999991 50.666666666662444 5.000000000000392
  endloop
endfacet
facet normal 9.668205007418583e-15 5.654223535394918e-16 -1.0
  outer loop
    vertex 39.399999999999636 55.66666666666229 5.000000000000387
    vertex 8.671396933834785e-14 50.66666666666563 4.99999999999998
    vertex 9.86988268891764e-15 55.66666666666202 4.999999999999998
  endloop
endfacet
facet normal 9.668205007418583e-15 5.654223535394918e-16 -1.0
  outer loop
    vertex 8.671396933834785e-14 50.66666666666563 4.99999999999998
    vertex 39.399999999999636 55.66666666666229 5.000000000000387
    vertex 4.999999999999667 50.666666666665705 5.000000000000006
  endloop
endfacet
facet normal 9.668205007418583e-15 5.654223535394918e-16 -1.0
  outer loop
    vertex 39.39999999999991 50.666666666662444 5.000000000000392
    vertex 4.999999999999667 50.666666666665705 5.000000000000006
    vertex 39.399999999999636 55.66666666666229 5.000000000000387
  endloop
endfacet
facet normal 9.668205007418583e-15 5.654223535394918e-16 -1.0
  outer loop
    vertex 4.999999999999667 50.666666666665705 5.000000000000006
    vertex 39.39999999999991 50.666666666662444 5.000000000000392
    vertex 4.99999999999974 34.66666666666049 5.000000000000018
  endloop
endfacet
facet normal 9.668205007418583e-15 5.654223535394918e-16 -1.0
  outer loop
    vertex 4.99999999999974 34.66666666666049 5.000000000000018
    vertex 39.39999999999991 50.666666666662444 5.000000000000392
    vertex 174.99999999999974 50.66666666666358 5.000000000001821
  endloop
endfacet
facet normal 9.668205007418583e-15 5.654223535394918e-16 -1.0
  outer loop
    vertex 4.99999999999974 34.66666666666049 5.000000000000018
    vertex 174.99999999999974 50.66666666666358 5.000000000001821
    vertex 174.99999999999918 34.66666666666024 5.000000000001652
  endloop
endfacet
facet normal 9.668205007418583e-15 5.654223535394918e-16 -1.0
  outer loop
    vertex 180.00000000000256 20.166666666667673 5.000000000001598
    vertex 174.99999999999918 34.66666666666024 5.000000000001652
    vertex 180.00000000000227 34.66666666666031 5.000000000001611
  endloop
endfacet
facet normal 9.668205007418583e-15 5.654223535394918e-16 -1.0
  outer loop
    vertex 4.99999999999974 34.66666666666049 5.000000000000018
    vertex 1.6955048476319234e-12 20.16666666666579 4.999999999999956
    vertex 1.5523915486426175e-12 34.666666666660454 4.999999999999946
  endloop
endfacet
facet normal 9.668205007418583e-15 5.654223535394918e-16 -1.0
  outer loop
    vertex 1.6955048476319234e-12 20.16666666666579 4.999999999999956
    vertex 4.99999999999974 34.66666666666049 5.000000000000018
    vertex 174.99999999999918 34.66666666666024 5.000000000001652
  endloop
endfacet
facet normal 9.668205007418583e-15 5.654223535394918e-16 -1.0
  outer loop
    vertex 1.6955048476319234e-12 20.16666666666579 4.999999999999956
    vertex 174.99999999999918 34.66666666666024 5.000000000001652
    vertex 4.999999999999884 20.166666666665876 5.000000000000095
  endloop
endfacet
facet normal 9.668205007418583e-15 5.654223535394918e-16 -1.0
  outer loop
    vertex 4.999999999999884 20.166666666665876 5.000000000000095
    vertex 174.99999999999918 34.66666666666024 5.000000000001652
    vertex 175.00000000000037 20.166666666667624 5.000000000001571
  endloop
endfacet
facet normal 9.668205007418583e-15 5.654223535394918e-16 -1.0
  outer loop
    vertex 175.00000000000037 20.166666666667624 5.000000000001571
    vertex 174.99999999999918 34.66666666666024 5.000000000001652
    vertex 180.00000000000256 20.166666666667673 5.000000000001598
  endloop
endfacet
facet normal 9.668205007418583e-15 5.654223535394918e-16 -1.0
  outer loop
    vertex 175.00000000000045 5.666666666667973 5.0000000000015365
    vertex 4.999999999999884 20.166666666665876 5.000000000000095
    vertex 175.00000000000037 20.166666666667624 5.000000000001571
  endloop
endfacet
facet normal 9.668205007418583e-15 5.654223535394918e-16 -1.0
  outer loop
    vertex 4.999999999999884 20.166666666665876 5.000000000000095
    vertex 175.00000000000045 5.666666666667973 5.0000000000015365
    vertex 135.4766666666689 5.666666666667702 5.0000000000011005
  endloop
endfacet
facet normal 9.668205007418583e-15 5.654223535394918e-16 -1.0
  outer loop
    vertex 135.4766666666689 5.666666666667702 5.0000000000011005
    vertex 175.00000000000045 5.666666666667973 5.0000000000015365
    vertex 135.47666666666893 0.6666666666677107 5.000000000001105
  endloop
endfacet
facet normal 9.668205007418583e-15 5.654223535394918e-16 -1.0
  outer loop
    vertex 135.47666666666893 0.6666666666677107 5.000000000001105
    vertex 175.00000000000045 5.666666666667973 5.0000000000015365
    vertex 180.0000000000027 5.666666666667973 5.0000000000016085
  endloop
endfacet
facet normal 9.668205007418583e-15 5.654223535394918e-16 -1.0
  outer loop
    vertex 135.47666666666893 0.6666666666677107 5.000000000001105
    vertex 180.0000000000027 5.666666666667973 5.0000000000016085
    vertex 180.00000000000273 0.6666666666681507 5.000000000001612
  endloop
endfacet
facet normal 9.668205007418583e-15 5.654223535394918e-16 -1.0
  outer loop
    vertex 4.999999999999884 20.166666666665876 5.000000000000095
    vertex 39.40000000000166 5.666666666666754 5.000000000000287
    vertex 4.999999999999554 5.666666666666247 4.999999999999947
  endloop
endfacet
facet normal 9.668205007418583e-15 5.654223535394918e-16 -1.0
  outer loop
    vertex 39.40000000000166 5.666666666666754 5.000000000000287
    vertex 4.999999999999884 20.166666666665876 5.000000000000095
    vertex 135.4766666666689 5.666666666667702 5.0000000000011005
  endloop
endfacet
facet normal 9.668205007418583e-15 5.654223535394918e-16 -1.0
  outer loop
    vertex 39.40000000000166 5.666666666666754 5.000000000000287
    vertex 135.4766666666689 5.666666666667702 5.0000000000011005
    vertex 103.53333333333578 5.6666666666673855 5.00000000000101
  endloop
endfacet
facet normal 9.668205007418583e-15 5.654223535394918e-16 -1.0
  outer loop
    vertex 4.999999999999554 5.666666666666247 4.999999999999947
    vertex 39.40000000000166 5.666666666666754 5.000000000000287
    vertex 39.400000000001846 0.6666666666667632 5.000000000000291
  endloop
endfacet
facet normal 9.668205007418583e-15 5.654223535394918e-16 -1.0
  outer loop
    vertex 4.999999999999554 5.666666666666247 4.999999999999947
    vertex 39.400000000001846 0.6666666666667632 5.000000000000291
    vertex 2.389216602338706e-12 0.6666666666665151 4.999999999999857
  endloop
endfacet
facet normal 9.668205007418583e-15 5.654223535394918e-16 -1.0
  outer loop
    vertex 2.389216602338706e-12 0.6666666666665151 4.999999999999857
    vertex 2.312372515689276e-12 5.666666666666269 4.999999999999853
    vertex 4.999999999999554 5.666666666666247 4.999999999999947
  endloop
endfacet
facet normal 9.668205007418583e-15 5.654223535394918e-16 -1.0
  outer loop
    vertex 103.53333333333578 5.6666666666673855 5.00000000000101
    vertex 71.46666666666871 5.6666666666670364 5.000000000000649
    vertex 39.40000000000166 5.666666666666754 5.000000000000287
  endloop
endfacet
facet normal 9.668205007418583e-15 5.654223535394918e-16 -1.0
  outer loop
    vertex 71.46666666666871 5.6666666666670364 5.000000000000649
    vertex 103.53333333333578 5.6666666666673855 5.00000000000101
    vertex 103.53333333333532 0.6666666666674287 5.000000000000969
  endloop
endfacet
facet normal 9.668205007418583e-15 5.654223535394918e-16 -1.0
  outer loop
    vertex 71.46666666666871 5.6666666666670364 5.000000000000649
    vertex 103.53333333333532 0.6666666666674287 5.000000000000969
    vertex 71.46666666666877 0.6666666666671242 5.000000000000608
  endloop
endfacet
endsolid pared 4
